<?xml version="1.0" encoding="utf-8" standalone="no"?>
<!DOCTYPE svg PUBLIC "-//W3C//DTD SVG 1.1//EN"
  "http://www.w3.org/Graphics/SVG/1.1/DTD/svg11.dtd">
<svg xmlns:xlink="http://www.w3.org/1999/xlink" width="1277.20416pt" height="424.8pt" viewBox="0 0 1277.20416 424.8" xmlns="http://www.w3.org/2000/svg" version="1.1">
 <metadata>
  <rdf:RDF xmlns:dc="http://purl.org/dc/elements/1.1/" xmlns:cc="http://creativecommons.org/ns#" xmlns:rdf="http://www.w3.org/1999/02/22-rdf-syntax-ns#">
   <cc:Work>
    <dc:type rdf:resource="http://purl.org/dc/dcmitype/StillImage"/>
    <dc:date>2026-04-07T13:56:59.198500</dc:date>
    <dc:format>image/svg+xml</dc:format>
    <dc:creator>
     <cc:Agent>
      <dc:title>Matplotlib v3.10.8, https://matplotlib.org/</dc:title>
     </cc:Agent>
    </dc:creator>
   </cc:Work>
  </rdf:RDF>
 </metadata>
 <defs>
  <style type="text/css">*{stroke-linejoin: round; stroke-linecap: butt}</style>
 </defs>
 <g id="figure_1">
  <g id="patch_1">
   <path d="M 0 424.8 
L 1277.20416 424.8 
L 1277.20416 0 
L 0 0 
z
" style="fill: #f8fafc"/>
  </g>
  <g id="axes_1">
   <g id="patch_2">
    <path d="M 83.237806 349.2 
L 148.2661 349.2 
L 148.2661 96.12 
L 83.237806 96.12 
z
" clip-path="url(#pf183b99a52)" style="fill: #cde7ff; stroke: #1f2937; stroke-width: 1.2; stroke-linejoin: miter"/>
   </g>
   <g id="patch_3">
    <path d="M 83.237806 96.12 
L 95.15966 85.176 
L 160.187954 85.176 
L 148.2661 96.12 
z
" clip-path="url(#pf183b99a52)" style="fill: #ffffff; opacity: 0.55; stroke: #1f2937; stroke-linejoin: miter"/>
   </g>
   <g id="patch_4">
    <path d="M 148.2661 349.2 
L 160.187954 338.256 
L 160.187954 85.176 
L 148.2661 96.12 
z
" clip-path="url(#pf183b99a52)" style="fill: #0f172a; opacity: 0.16; stroke: #1f2937; stroke-linejoin: miter"/>
   </g>
   <g id="patch_5">
    <path d="M 89.740636 340.992 
L 154.768929 340.992 
L 154.768929 87.912 
L 89.740636 87.912 
z
" clip-path="url(#pf183b99a52)" style="fill: #cde7ff; stroke: #1f2937; stroke-width: 1.2; stroke-linejoin: miter"/>
   </g>
   <g id="patch_6">
    <path d="M 89.740636 87.912 
L 101.66249 76.968 
L 166.690783 76.968 
L 154.768929 87.912 
z
" clip-path="url(#pf183b99a52)" style="fill: #ffffff; opacity: 0.55; stroke: #1f2937; stroke-linejoin: miter"/>
   </g>
   <g id="patch_7">
    <path d="M 154.768929 340.992 
L 166.690783 330.048 
L 166.690783 76.968 
L 154.768929 87.912 
z
" clip-path="url(#pf183b99a52)" style="fill: #0f172a; opacity: 0.16; stroke: #1f2937; stroke-linejoin: miter"/>
   </g>
   <g id="patch_8">
    <path d="M 96.243465 332.784 
L 161.271758 332.784 
L 161.271758 79.704 
L 96.243465 79.704 
z
" clip-path="url(#pf183b99a52)" style="fill: #cde7ff; stroke: #1f2937; stroke-width: 1.2; stroke-linejoin: miter"/>
   </g>
   <g id="patch_9">
    <path d="M 96.243465 79.704 
L 108.165319 68.76 
L 173.193612 68.76 
L 161.271758 79.704 
z
" clip-path="url(#pf183b99a52)" style="fill: #ffffff; opacity: 0.55; stroke: #1f2937; stroke-linejoin: miter"/>
   </g>
   <g id="patch_10">
    <path d="M 161.271758 332.784 
L 173.193612 321.84 
L 173.193612 68.76 
L 161.271758 79.704 
z
" clip-path="url(#pf183b99a52)" style="fill: #0f172a; opacity: 0.16; stroke: #1f2937; stroke-linejoin: miter"/>
   </g>
   <g id="patch_11">
    <path d="M 102.746294 324.576 
L 167.774588 324.576 
L 167.774588 71.496 
L 102.746294 71.496 
z
" clip-path="url(#pf183b99a52)" style="fill: #cde7ff; stroke: #1f2937; stroke-width: 1.2; stroke-linejoin: miter"/>
   </g>
   <g id="patch_12">
    <path d="M 102.746294 71.496 
L 114.668148 60.552 
L 179.696442 60.552 
L 167.774588 71.496 
z
" clip-path="url(#pf183b99a52)" style="fill: #ffffff; opacity: 0.55; stroke: #1f2937; stroke-linejoin: miter"/>
   </g>
   <g id="patch_13">
    <path d="M 167.774588 324.576 
L 179.696442 313.632 
L 179.696442 60.552 
L 167.774588 71.496 
z
" clip-path="url(#pf183b99a52)" style="fill: #0f172a; opacity: 0.16; stroke: #1f2937; stroke-linejoin: miter"/>
   </g>
   <g id="patch_14">
    <path d="M 218.713418 325.26 
L 252.311369 325.26 
L 252.311369 120.06 
L 218.713418 120.06 
z
" clip-path="url(#pf183b99a52)" style="fill: #d9f99d; stroke: #1f2937; stroke-width: 1.2; stroke-linejoin: miter"/>
   </g>
   <g id="patch_15">
    <path d="M 218.713418 120.06 
L 230.635271 109.116 
L 264.233223 109.116 
L 252.311369 120.06 
z
" clip-path="url(#pf183b99a52)" style="fill: #ffffff; opacity: 0.55; stroke: #1f2937; stroke-linejoin: miter"/>
   </g>
   <g id="patch_16">
    <path d="M 252.311369 325.26 
L 264.233223 314.316 
L 264.233223 109.116 
L 252.311369 120.06 
z
" clip-path="url(#pf183b99a52)" style="fill: #0f172a; opacity: 0.16; stroke: #1f2937; stroke-linejoin: miter"/>
   </g>
   <g id="patch_17">
    <path d="M 291.870248 332.1 
L 341.725272 332.1 
L 341.725272 116.64 
L 291.870248 116.64 
z
" clip-path="url(#pf183b99a52)" style="fill: #fef08a; stroke: #1f2937; stroke-width: 1.2; stroke-linejoin: miter"/>
   </g>
   <g id="patch_18">
    <path d="M 291.870248 116.64 
L 303.792101 105.696 
L 353.647126 105.696 
L 341.725272 116.64 
z
" clip-path="url(#pf183b99a52)" style="fill: #ffffff; opacity: 0.55; stroke: #1f2937; stroke-linejoin: miter"/>
   </g>
   <g id="patch_19">
    <path d="M 341.725272 332.1 
L 353.647126 321.156 
L 353.647126 105.696 
L 341.725272 116.64 
z
" clip-path="url(#pf183b99a52)" style="fill: #0f172a; opacity: 0.16; stroke: #1f2937; stroke-linejoin: miter"/>
   </g>
   <g id="patch_20">
    <path d="M 383.993663 297.9 
L 433.848688 297.9 
L 433.848688 137.16 
L 383.993663 137.16 
z
" clip-path="url(#pf183b99a52)" style="fill: #fde68a; stroke: #1f2937; stroke-width: 1.2; stroke-linejoin: miter"/>
   </g>
   <g id="patch_21">
    <path d="M 383.993663 137.16 
L 395.915517 126.216 
L 445.770542 126.216 
L 433.848688 137.16 
z
" clip-path="url(#pf183b99a52)" style="fill: #ffffff; opacity: 0.55; stroke: #1f2937; stroke-linejoin: miter"/>
   </g>
   <g id="patch_22">
    <path d="M 433.848688 297.9 
L 445.770542 286.956 
L 445.770542 126.216 
L 433.848688 137.16 
z
" clip-path="url(#pf183b99a52)" style="fill: #0f172a; opacity: 0.16; stroke: #1f2937; stroke-linejoin: miter"/>
   </g>
   <g id="patch_23">
    <path d="M 476.117079 280.8 
L 533.016835 280.8 
L 533.016835 154.26 
L 476.117079 154.26 
z
" clip-path="url(#pf183b99a52)" style="fill: #fdba74; stroke: #1f2937; stroke-width: 1.2; stroke-linejoin: miter"/>
   </g>
   <g id="patch_24">
    <path d="M 476.117079 154.26 
L 488.038932 143.316 
L 544.938689 143.316 
L 533.016835 154.26 
z
" clip-path="url(#pf183b99a52)" style="fill: #ffffff; opacity: 0.55; stroke: #1f2937; stroke-linejoin: miter"/>
   </g>
   <g id="patch_25">
    <path d="M 533.016835 280.8 
L 544.938689 269.856 
L 544.938689 143.316 
L 533.016835 154.26 
z
" clip-path="url(#pf183b99a52)" style="fill: #0f172a; opacity: 0.16; stroke: #1f2937; stroke-linejoin: miter"/>
   </g>
   <g id="patch_26">
    <path d="M 573.659519 270.54 
L 622.430739 270.54 
L 622.430739 164.52 
L 573.659519 164.52 
z
" clip-path="url(#pf183b99a52)" style="fill: #fca5a5; stroke: #1f2937; stroke-width: 1.2; stroke-linejoin: miter"/>
   </g>
   <g id="patch_27">
    <path d="M 573.659519 164.52 
L 585.581372 153.576 
L 634.352592 153.576 
L 622.430739 164.52 
z
" clip-path="url(#pf183b99a52)" style="fill: #ffffff; opacity: 0.55; stroke: #1f2937; stroke-linejoin: miter"/>
   </g>
   <g id="patch_28">
    <path d="M 622.430739 270.54 
L 634.352592 259.596 
L 634.352592 153.576 
L 622.430739 164.52 
z
" clip-path="url(#pf183b99a52)" style="fill: #0f172a; opacity: 0.16; stroke: #1f2937; stroke-linejoin: miter"/>
   </g>
   <g id="patch_29">
    <path d="M 665.782934 263.7 
L 709.13513 263.7 
L 709.13513 171.36 
L 665.782934 171.36 
z
" clip-path="url(#pf183b99a52)" style="fill: #f9a8d4; stroke: #1f2937; stroke-width: 1.2; stroke-linejoin: miter"/>
   </g>
   <g id="patch_30">
    <path d="M 665.782934 171.36 
L 677.704788 160.416 
L 721.056984 160.416 
L 709.13513 171.36 
z
" clip-path="url(#pf183b99a52)" style="fill: #ffffff; opacity: 0.55; stroke: #1f2937; stroke-linejoin: miter"/>
   </g>
   <g id="patch_31">
    <path d="M 709.13513 263.7 
L 721.056984 252.756 
L 721.056984 160.416 
L 709.13513 171.36 
z
" clip-path="url(#pf183b99a52)" style="fill: #0f172a; opacity: 0.16; stroke: #1f2937; stroke-linejoin: miter"/>
   </g>
   <g id="patch_32">
    <path d="M 774.163423 311.58 
L 836.482204 311.58 
L 836.482204 140.58 
L 774.163423 140.58 
z
" clip-path="url(#pf183b99a52)" style="fill: #c4b5fd; stroke: #1f2937; stroke-width: 1.2; stroke-linejoin: miter"/>
   </g>
   <g id="patch_33">
    <path d="M 774.163423 140.58 
L 786.085277 129.636 
L 848.404058 129.636 
L 836.482204 140.58 
z
" clip-path="url(#pf183b99a52)" style="fill: #ffffff; opacity: 0.55; stroke: #1f2937; stroke-linejoin: miter"/>
   </g>
   <g id="patch_34">
    <path d="M 836.482204 311.58 
L 848.404058 300.636 
L 848.404058 129.636 
L 836.482204 140.58 
z
" clip-path="url(#pf183b99a52)" style="fill: #0f172a; opacity: 0.16; stroke: #1f2937; stroke-linejoin: miter"/>
   </g>
   <g id="patch_35">
    <path d="M 780.666252 303.372 
L 842.985034 303.372 
L 842.985034 132.372 
L 780.666252 132.372 
z
" clip-path="url(#pf183b99a52)" style="fill: #c4b5fd; stroke: #1f2937; stroke-width: 1.2; stroke-linejoin: miter"/>
   </g>
   <g id="patch_36">
    <path d="M 780.666252 132.372 
L 792.588106 121.428 
L 854.906887 121.428 
L 842.985034 132.372 
z
" clip-path="url(#pf183b99a52)" style="fill: #ffffff; opacity: 0.55; stroke: #1f2937; stroke-linejoin: miter"/>
   </g>
   <g id="patch_37">
    <path d="M 842.985034 303.372 
L 854.906887 292.428 
L 854.906887 121.428 
L 842.985034 132.372 
z
" clip-path="url(#pf183b99a52)" style="fill: #0f172a; opacity: 0.16; stroke: #1f2937; stroke-linejoin: miter"/>
   </g>
   <g id="patch_38">
    <path d="M 787.169082 295.164 
L 849.487863 295.164 
L 849.487863 124.164 
L 787.169082 124.164 
z
" clip-path="url(#pf183b99a52)" style="fill: #c4b5fd; stroke: #1f2937; stroke-width: 1.2; stroke-linejoin: miter"/>
   </g>
   <g id="patch_39">
    <path d="M 787.169082 124.164 
L 799.090936 113.22 
L 861.409717 113.22 
L 849.487863 124.164 
z
" clip-path="url(#pf183b99a52)" style="fill: #ffffff; opacity: 0.55; stroke: #1f2937; stroke-linejoin: miter"/>
   </g>
   <g id="patch_40">
    <path d="M 849.487863 295.164 
L 861.409717 284.22 
L 861.409717 113.22 
L 849.487863 124.164 
z
" clip-path="url(#pf183b99a52)" style="fill: #0f172a; opacity: 0.16; stroke: #1f2937; stroke-linejoin: miter"/>
   </g>
   <g id="patch_41">
    <path d="M 793.671911 286.956 
L 855.990692 286.956 
L 855.990692 115.956 
L 793.671911 115.956 
z
" clip-path="url(#pf183b99a52)" style="fill: #c4b5fd; stroke: #1f2937; stroke-width: 1.2; stroke-linejoin: miter"/>
   </g>
   <g id="patch_42">
    <path d="M 793.671911 115.956 
L 805.593765 105.012 
L 867.912546 105.012 
L 855.990692 115.956 
z
" clip-path="url(#pf183b99a52)" style="fill: #ffffff; opacity: 0.55; stroke: #1f2937; stroke-linejoin: miter"/>
   </g>
   <g id="patch_43">
    <path d="M 855.990692 286.956 
L 867.912546 276.012 
L 867.912546 105.012 
L 855.990692 115.956 
z
" clip-path="url(#pf183b99a52)" style="fill: #0f172a; opacity: 0.16; stroke: #1f2937; stroke-linejoin: miter"/>
   </g>
   <g id="patch_44">
    <path d="M 906.929522 280.8 
L 963.829279 280.8 
L 963.829279 164.52 
L 906.929522 164.52 
z
" clip-path="url(#pf183b99a52)" style="fill: #fda4af; stroke: #1f2937; stroke-width: 1.2; stroke-linejoin: miter"/>
   </g>
   <g id="patch_45">
    <path d="M 906.929522 164.52 
L 918.851376 153.576 
L 975.751132 153.576 
L 963.829279 164.52 
z
" clip-path="url(#pf183b99a52)" style="fill: #ffffff; opacity: 0.55; stroke: #1f2937; stroke-linejoin: miter"/>
   </g>
   <g id="patch_46">
    <path d="M 963.829279 280.8 
L 975.751132 269.856 
L 975.751132 153.576 
L 963.829279 164.52 
z
" clip-path="url(#pf183b99a52)" style="fill: #0f172a; opacity: 0.16; stroke: #1f2937; stroke-linejoin: miter"/>
   </g>
   <g id="patch_47">
    <path d="M 1012.600499 287.64 
L 1064.081231 287.64 
L 1064.081231 157.68 
L 1012.600499 157.68 
z
" clip-path="url(#pf183b99a52)" style="fill: #93c5fd; stroke: #1f2937; stroke-width: 1.2; stroke-linejoin: miter"/>
   </g>
   <g id="patch_48">
    <path d="M 1012.600499 157.68 
L 1024.522352 146.736 
L 1076.003085 146.736 
L 1064.081231 157.68 
z
" clip-path="url(#pf183b99a52)" style="fill: #ffffff; opacity: 0.55; stroke: #1f2937; stroke-linejoin: miter"/>
   </g>
   <g id="patch_49">
    <path d="M 1064.081231 287.64 
L 1076.003085 276.696 
L 1076.003085 146.736 
L 1064.081231 157.68 
z
" clip-path="url(#pf183b99a52)" style="fill: #0f172a; opacity: 0.16; stroke: #1f2937; stroke-linejoin: miter"/>
   </g>
   <g id="patch_50">
    <path d="M 1110.142939 273.96 
L 1158.914159 273.96 
L 1158.914159 171.36 
L 1110.142939 171.36 
z
" clip-path="url(#pf183b99a52)" style="fill: #86efac; stroke: #1f2937; stroke-width: 1.2; stroke-linejoin: miter"/>
   </g>
   <g id="patch_51">
    <path d="M 1110.142939 171.36 
L 1122.064792 160.416 
L 1170.836012 160.416 
L 1158.914159 171.36 
z
" clip-path="url(#pf183b99a52)" style="fill: #ffffff; opacity: 0.55; stroke: #1f2937; stroke-linejoin: miter"/>
   </g>
   <g id="patch_52">
    <path d="M 1158.914159 273.96 
L 1170.836012 263.016 
L 1170.836012 160.416 
L 1158.914159 171.36 
z
" clip-path="url(#pf183b99a52)" style="fill: #0f172a; opacity: 0.16; stroke: #1f2937; stroke-linejoin: miter"/>
   </g>
   <g id="patch_53">
    <path d="M 1202.266354 256.86 
L 1241.28333 256.86 
L 1241.28333 188.46 
L 1202.266354 188.46 
z
" clip-path="url(#pf183b99a52)" style="fill: #f5d0fe; stroke: #1f2937; stroke-width: 1.2; stroke-linejoin: miter"/>
   </g>
   <g id="patch_54">
    <path d="M 1202.266354 188.46 
L 1214.188208 177.516 
L 1253.205184 177.516 
L 1241.28333 188.46 
z
" clip-path="url(#pf183b99a52)" style="fill: #ffffff; opacity: 0.55; stroke: #1f2937; stroke-linejoin: miter"/>
   </g>
   <g id="patch_55">
    <path d="M 1241.28333 256.86 
L 1253.205184 245.916 
L 1253.205184 177.516 
L 1241.28333 188.46 
z
" clip-path="url(#pf183b99a52)" style="fill: #0f172a; opacity: 0.16; stroke: #1f2937; stroke-linejoin: miter"/>
   </g>
   <g id="line2d_1">
    <path d="M 272.903662 61.92 
L 570.950006 61.92 
" clip-path="url(#pf183b99a52)" style="fill: none; stroke-dasharray: 4.81,2.08; stroke-dashoffset: 0; stroke: #64748b; stroke-width: 1.3"/>
   </g>
   <g id="line2d_2">
    <path d="M 272.903662 356.04 
L 570.950006 356.04 
" clip-path="url(#pf183b99a52)" style="fill: none; stroke-dasharray: 4.81,2.08; stroke-dashoffset: 0; stroke: #64748b; stroke-width: 1.3"/>
   </g>
   <g id="line2d_3">
    <path d="M 272.903662 356.04 
L 272.903662 61.92 
" clip-path="url(#pf183b99a52)" style="fill: none; stroke-dasharray: 4.81,2.08; stroke-dashoffset: 0; stroke: #64748b; stroke-width: 1.3"/>
   </g>
   <g id="line2d_4">
    <path d="M 570.950006 356.04 
L 570.950006 61.92 
" clip-path="url(#pf183b99a52)" style="fill: none; stroke-dasharray: 4.81,2.08; stroke-dashoffset: 0; stroke: #64748b; stroke-width: 1.3"/>
   </g>
   <g id="text_1">
    <!-- Input sample -->
    <g transform="translate(98.327629 170.425775) scale(0.1 -0.1)">
     <defs>
      <path id="DejaVuSans-Bold-49" d="M 588 4666 
L 1791 4666 
L 1791 0 
L 588 0 
L 588 4666 
z
" transform="scale(0.015625)"/>
      <path id="DejaVuSans-Bold-6e" d="M 4056 2131 
L 4056 0 
L 2931 0 
L 2931 347 
L 2931 1631 
Q 2931 2084 2911 2256 
Q 2891 2428 2841 2509 
Q 2775 2619 2662 2680 
Q 2550 2741 2406 2741 
Q 2056 2741 1856 2470 
Q 1656 2200 1656 1722 
L 1656 0 
L 538 0 
L 538 3500 
L 1656 3500 
L 1656 2988 
Q 1909 3294 2193 3439 
Q 2478 3584 2822 3584 
Q 3428 3584 3742 3212 
Q 4056 2841 4056 2131 
z
" transform="scale(0.015625)"/>
      <path id="DejaVuSans-Bold-70" d="M 1656 506 
L 1656 -1331 
L 538 -1331 
L 538 3500 
L 1656 3500 
L 1656 2988 
Q 1888 3294 2169 3439 
Q 2450 3584 2816 3584 
Q 3463 3584 3878 3070 
Q 4294 2556 4294 1747 
Q 4294 938 3878 423 
Q 3463 -91 2816 -91 
Q 2450 -91 2169 54 
Q 1888 200 1656 506 
z
M 2400 2772 
Q 2041 2772 1848 2508 
Q 1656 2244 1656 1747 
Q 1656 1250 1848 986 
Q 2041 722 2400 722 
Q 2759 722 2948 984 
Q 3138 1247 3138 1747 
Q 3138 2247 2948 2509 
Q 2759 2772 2400 2772 
z
" transform="scale(0.015625)"/>
      <path id="DejaVuSans-Bold-75" d="M 500 1363 
L 500 3500 
L 1625 3500 
L 1625 3150 
Q 1625 2866 1622 2436 
Q 1619 2006 1619 1863 
Q 1619 1441 1641 1255 
Q 1663 1069 1716 984 
Q 1784 875 1895 815 
Q 2006 756 2150 756 
Q 2500 756 2700 1025 
Q 2900 1294 2900 1772 
L 2900 3500 
L 4019 3500 
L 4019 0 
L 2900 0 
L 2900 506 
Q 2647 200 2364 54 
Q 2081 -91 1741 -91 
Q 1134 -91 817 281 
Q 500 653 500 1363 
z
" transform="scale(0.015625)"/>
      <path id="DejaVuSans-Bold-74" d="M 1759 4494 
L 1759 3500 
L 2913 3500 
L 2913 2700 
L 1759 2700 
L 1759 1216 
Q 1759 972 1856 886 
Q 1953 800 2241 800 
L 2816 800 
L 2816 0 
L 1856 0 
Q 1194 0 917 276 
Q 641 553 641 1216 
L 641 2700 
L 84 2700 
L 84 3500 
L 641 3500 
L 641 4494 
L 1759 4494 
z
" transform="scale(0.015625)"/>
      <path id="DejaVuSans-Bold-20" transform="scale(0.015625)"/>
      <path id="DejaVuSans-Bold-73" d="M 3272 3391 
L 3272 2541 
Q 2913 2691 2578 2766 
Q 2244 2841 1947 2841 
Q 1628 2841 1473 2761 
Q 1319 2681 1319 2516 
Q 1319 2381 1436 2309 
Q 1553 2238 1856 2203 
L 2053 2175 
Q 2913 2066 3209 1816 
Q 3506 1566 3506 1031 
Q 3506 472 3093 190 
Q 2681 -91 1863 -91 
Q 1516 -91 1145 -36 
Q 775 19 384 128 
L 384 978 
Q 719 816 1070 734 
Q 1422 653 1784 653 
Q 2113 653 2278 743 
Q 2444 834 2444 1013 
Q 2444 1163 2330 1236 
Q 2216 1309 1875 1350 
L 1678 1375 
Q 931 1469 631 1722 
Q 331 1975 331 2491 
Q 331 3047 712 3315 
Q 1094 3584 1881 3584 
Q 2191 3584 2531 3537 
Q 2872 3491 3272 3391 
z
" transform="scale(0.015625)"/>
      <path id="DejaVuSans-Bold-61" d="M 2106 1575 
Q 1756 1575 1579 1456 
Q 1403 1338 1403 1106 
Q 1403 894 1545 773 
Q 1688 653 1941 653 
Q 2256 653 2472 879 
Q 2688 1106 2688 1447 
L 2688 1575 
L 2106 1575 
z
M 3816 1997 
L 3816 0 
L 2688 0 
L 2688 519 
Q 2463 200 2181 54 
Q 1900 -91 1497 -91 
Q 953 -91 614 226 
Q 275 544 275 1050 
Q 275 1666 698 1953 
Q 1122 2241 2028 2241 
L 2688 2241 
L 2688 2328 
Q 2688 2594 2478 2717 
Q 2269 2841 1825 2841 
Q 1466 2841 1156 2769 
Q 847 2697 581 2553 
L 581 3406 
Q 941 3494 1303 3539 
Q 1666 3584 2028 3584 
Q 2975 3584 3395 3211 
Q 3816 2838 3816 1997 
z
" transform="scale(0.015625)"/>
      <path id="DejaVuSans-Bold-6d" d="M 3781 2919 
Q 3994 3244 4286 3414 
Q 4578 3584 4928 3584 
Q 5531 3584 5847 3212 
Q 6163 2841 6163 2131 
L 6163 0 
L 5038 0 
L 5038 1825 
Q 5041 1866 5042 1909 
Q 5044 1953 5044 2034 
Q 5044 2406 4934 2573 
Q 4825 2741 4581 2741 
Q 4263 2741 4089 2478 
Q 3916 2216 3909 1719 
L 3909 0 
L 2784 0 
L 2784 1825 
Q 2784 2406 2684 2573 
Q 2584 2741 2328 2741 
Q 2006 2741 1831 2477 
Q 1656 2213 1656 1722 
L 1656 0 
L 531 0 
L 531 3500 
L 1656 3500 
L 1656 2988 
Q 1863 3284 2130 3434 
Q 2397 3584 2719 3584 
Q 3081 3584 3359 3409 
Q 3638 3234 3781 2919 
z
" transform="scale(0.015625)"/>
      <path id="DejaVuSans-Bold-6c" d="M 538 4863 
L 1656 4863 
L 1656 0 
L 538 0 
L 538 4863 
z
" transform="scale(0.015625)"/>
      <path id="DejaVuSans-Bold-65" d="M 4031 1759 
L 4031 1441 
L 1416 1441 
Q 1456 1047 1700 850 
Q 1944 653 2381 653 
Q 2734 653 3104 758 
Q 3475 863 3866 1075 
L 3866 213 
Q 3469 63 3072 -14 
Q 2675 -91 2278 -91 
Q 1328 -91 801 392 
Q 275 875 275 1747 
Q 275 2603 792 3093 
Q 1309 3584 2216 3584 
Q 3041 3584 3536 3087 
Q 4031 2591 4031 1759 
z
M 2881 2131 
Q 2881 2450 2695 2645 
Q 2509 2841 2209 2841 
Q 1884 2841 1681 2658 
Q 1478 2475 1428 2131 
L 2881 2131 
z
" transform="scale(0.015625)"/>
     </defs>
     <use xlink:href="#DejaVuSans-Bold-49"/>
     <use xlink:href="#DejaVuSans-Bold-6e" transform="translate(37.207031 0)"/>
     <use xlink:href="#DejaVuSans-Bold-70" transform="translate(108.398438 0)"/>
     <use xlink:href="#DejaVuSans-Bold-75" transform="translate(179.980469 0)"/>
     <use xlink:href="#DejaVuSans-Bold-74" transform="translate(251.171875 0)"/>
     <use xlink:href="#DejaVuSans-Bold-20" transform="translate(298.974609 0)"/>
     <use xlink:href="#DejaVuSans-Bold-73" transform="translate(333.789062 0)"/>
     <use xlink:href="#DejaVuSans-Bold-61" transform="translate(393.310547 0)"/>
     <use xlink:href="#DejaVuSans-Bold-6d" transform="translate(460.791016 0)"/>
     <use xlink:href="#DejaVuSans-Bold-70" transform="translate(564.990234 0)"/>
     <use xlink:href="#DejaVuSans-Bold-6c" transform="translate(636.572266 0)"/>
     <use xlink:href="#DejaVuSans-Bold-65" transform="translate(670.849609 0)"/>
    </g>
   </g>
   <g id="text_2">
    <!-- (96, 50, 2) -->
    <g transform="translate(105.459894 243.566944) scale(0.09 -0.09)">
     <defs>
      <path id="DejaVuSansMono-28" d="M 2766 4856 
Q 2350 4144 2145 3436 
Q 1941 2728 1941 2009 
Q 1941 1294 2145 584 
Q 2350 -125 2766 -844 
L 2266 -844 
Q 1794 -100 1562 604 
Q 1331 1309 1331 2009 
Q 1331 2706 1562 3412 
Q 1794 4119 2266 4856 
L 2766 4856 
z
" transform="scale(0.015625)"/>
      <path id="DejaVuSansMono-39" d="M 1863 2069 
Q 2266 2069 2495 2359 
Q 2725 2650 2725 3163 
Q 2725 3675 2495 3965 
Q 2266 4256 1863 4256 
Q 1444 4256 1231 3979 
Q 1019 3703 1019 3163 
Q 1019 2619 1230 2344 
Q 1441 2069 1863 2069 
z
M 738 97 
L 738 678 
Q 934 563 1156 502 
Q 1378 441 1619 441 
Q 2219 441 2526 892 
Q 2834 1344 2834 2222 
Q 2688 1909 2422 1742 
Q 2156 1575 1813 1575 
Q 1138 1575 767 1990 
Q 397 2406 397 3169 
Q 397 3922 776 4336 
Q 1156 4750 1850 4750 
Q 2663 4750 3041 4165 
Q 3419 3581 3419 2328 
Q 3419 1150 2964 529 
Q 2509 -91 1644 -91 
Q 1416 -91 1184 -42 
Q 953 6 738 97 
z
" transform="scale(0.015625)"/>
      <path id="DejaVuSansMono-36" d="M 3097 4563 
L 3097 3981 
Q 2900 4097 2678 4158 
Q 2456 4219 2216 4219 
Q 1616 4219 1306 3767 
Q 997 3316 997 2438 
Q 1147 2750 1412 2917 
Q 1678 3084 2022 3084 
Q 2697 3084 3067 2670 
Q 3438 2256 3438 1497 
Q 3438 741 3056 325 
Q 2675 -91 1984 -91 
Q 1172 -91 794 492 
Q 416 1075 416 2328 
Q 416 3509 870 4129 
Q 1325 4750 2188 4750 
Q 2419 4750 2650 4701 
Q 2881 4653 3097 4563 
z
M 1972 2591 
Q 1569 2591 1337 2300 
Q 1106 2009 1106 1497 
Q 1106 984 1337 693 
Q 1569 403 1972 403 
Q 2391 403 2603 679 
Q 2816 956 2816 1497 
Q 2816 2041 2603 2316 
Q 2391 2591 1972 2591 
z
" transform="scale(0.015625)"/>
      <path id="DejaVuSansMono-2c" d="M 1569 947 
L 2356 947 
L 2356 300 
L 1741 -897 
L 1259 -897 
L 1569 300 
L 1569 947 
z
" transform="scale(0.015625)"/>
      <path id="DejaVuSansMono-20" transform="scale(0.015625)"/>
      <path id="DejaVuSansMono-35" d="M 647 4666 
L 3009 4666 
L 3009 4134 
L 1222 4134 
L 1222 2988 
Q 1356 3038 1492 3061 
Q 1628 3084 1766 3084 
Q 2491 3084 2916 2656 
Q 3341 2228 3341 1497 
Q 3341 759 2895 334 
Q 2450 -91 1678 -91 
Q 1306 -91 998 -41 
Q 691 9 447 109 
L 447 750 
Q 734 594 1025 517 
Q 1316 441 1619 441 
Q 2141 441 2423 716 
Q 2706 991 2706 1497 
Q 2706 1997 2414 2275 
Q 2122 2553 1600 2553 
Q 1347 2553 1106 2495 
Q 866 2438 647 2322 
L 647 4666 
z
" transform="scale(0.015625)"/>
      <path id="DejaVuSansMono-30" d="M 1509 2344 
Q 1509 2516 1629 2641 
Q 1750 2766 1919 2766 
Q 2094 2766 2219 2641 
Q 2344 2516 2344 2344 
Q 2344 2169 2220 2047 
Q 2097 1925 1919 1925 
Q 1744 1925 1626 2044 
Q 1509 2163 1509 2344 
z
M 1925 4250 
Q 1484 4250 1267 3775 
Q 1050 3300 1050 2328 
Q 1050 1359 1267 884 
Q 1484 409 1925 409 
Q 2369 409 2586 884 
Q 2803 1359 2803 2328 
Q 2803 3300 2586 3775 
Q 2369 4250 1925 4250 
z
M 1925 4750 
Q 2672 4750 3055 4137 
Q 3438 3525 3438 2328 
Q 3438 1134 3055 521 
Q 2672 -91 1925 -91 
Q 1178 -91 797 521 
Q 416 1134 416 2328 
Q 416 3525 797 4137 
Q 1178 4750 1925 4750 
z
" transform="scale(0.015625)"/>
      <path id="DejaVuSansMono-32" d="M 1166 531 
L 3309 531 
L 3309 0 
L 475 0 
L 475 531 
Q 1059 1147 1496 1619 
Q 1934 2091 2100 2284 
Q 2413 2666 2522 2902 
Q 2631 3138 2631 3384 
Q 2631 3775 2401 3997 
Q 2172 4219 1772 4219 
Q 1488 4219 1175 4116 
Q 863 4013 513 3803 
L 513 4441 
Q 834 4594 1145 4672 
Q 1456 4750 1759 4750 
Q 2444 4750 2861 4386 
Q 3278 4022 3278 3431 
Q 3278 3131 3139 2831 
Q 3000 2531 2688 2169 
Q 2513 1966 2180 1606 
Q 1847 1247 1166 531 
z
" transform="scale(0.015625)"/>
      <path id="DejaVuSansMono-29" d="M 1088 4856 
L 1588 4856 
Q 2059 4119 2290 3412 
Q 2522 2706 2522 2009 
Q 2522 1306 2290 600 
Q 2059 -106 1588 -844 
L 1088 -844 
Q 1503 -119 1708 590 
Q 1913 1300 1913 2009 
Q 1913 2722 1708 3431 
Q 1503 4141 1088 4856 
z
" transform="scale(0.015625)"/>
     </defs>
     <use xlink:href="#DejaVuSansMono-28"/>
     <use xlink:href="#DejaVuSansMono-39" transform="translate(60.205078 0)"/>
     <use xlink:href="#DejaVuSansMono-36" transform="translate(120.410156 0)"/>
     <use xlink:href="#DejaVuSansMono-2c" transform="translate(180.615234 0)"/>
     <use xlink:href="#DejaVuSansMono-20" transform="translate(240.820312 0)"/>
     <use xlink:href="#DejaVuSansMono-35" transform="translate(301.025391 0)"/>
     <use xlink:href="#DejaVuSansMono-30" transform="translate(361.230469 0)"/>
     <use xlink:href="#DejaVuSansMono-2c" transform="translate(421.435547 0)"/>
     <use xlink:href="#DejaVuSansMono-20" transform="translate(481.640625 0)"/>
     <use xlink:href="#DejaVuSansMono-32" transform="translate(541.845703 0)"/>
     <use xlink:href="#DejaVuSansMono-29" transform="translate(602.050781 0)"/>
    </g>
   </g>
   <g id="text_3">
    <!-- 96 paths, each path = 50 freq bins x 2 channels -->
    <g style="fill: #334155" transform="translate(7.2 383.4) scale(0.09 -0.09)">
     <defs>
      <path id="DejaVuSans-39" d="M 703 97 
L 703 672 
Q 941 559 1184 500 
Q 1428 441 1663 441 
Q 2288 441 2617 861 
Q 2947 1281 2994 2138 
Q 2813 1869 2534 1725 
Q 2256 1581 1919 1581 
Q 1219 1581 811 2004 
Q 403 2428 403 3163 
Q 403 3881 828 4315 
Q 1253 4750 1959 4750 
Q 2769 4750 3195 4129 
Q 3622 3509 3622 2328 
Q 3622 1225 3098 567 
Q 2575 -91 1691 -91 
Q 1453 -91 1209 -44 
Q 966 3 703 97 
z
M 1959 2075 
Q 2384 2075 2632 2365 
Q 2881 2656 2881 3163 
Q 2881 3666 2632 3958 
Q 2384 4250 1959 4250 
Q 1534 4250 1286 3958 
Q 1038 3666 1038 3163 
Q 1038 2656 1286 2365 
Q 1534 2075 1959 2075 
z
" transform="scale(0.015625)"/>
      <path id="DejaVuSans-36" d="M 2113 2584 
Q 1688 2584 1439 2293 
Q 1191 2003 1191 1497 
Q 1191 994 1439 701 
Q 1688 409 2113 409 
Q 2538 409 2786 701 
Q 3034 994 3034 1497 
Q 3034 2003 2786 2293 
Q 2538 2584 2113 2584 
z
M 3366 4563 
L 3366 3988 
Q 3128 4100 2886 4159 
Q 2644 4219 2406 4219 
Q 1781 4219 1451 3797 
Q 1122 3375 1075 2522 
Q 1259 2794 1537 2939 
Q 1816 3084 2150 3084 
Q 2853 3084 3261 2657 
Q 3669 2231 3669 1497 
Q 3669 778 3244 343 
Q 2819 -91 2113 -91 
Q 1303 -91 875 529 
Q 447 1150 447 2328 
Q 447 3434 972 4092 
Q 1497 4750 2381 4750 
Q 2619 4750 2861 4703 
Q 3103 4656 3366 4563 
z
" transform="scale(0.015625)"/>
      <path id="DejaVuSans-20" transform="scale(0.015625)"/>
      <path id="DejaVuSans-70" d="M 1159 525 
L 1159 -1331 
L 581 -1331 
L 581 3500 
L 1159 3500 
L 1159 2969 
Q 1341 3281 1617 3432 
Q 1894 3584 2278 3584 
Q 2916 3584 3314 3078 
Q 3713 2572 3713 1747 
Q 3713 922 3314 415 
Q 2916 -91 2278 -91 
Q 1894 -91 1617 61 
Q 1341 213 1159 525 
z
M 3116 1747 
Q 3116 2381 2855 2742 
Q 2594 3103 2138 3103 
Q 1681 3103 1420 2742 
Q 1159 2381 1159 1747 
Q 1159 1113 1420 752 
Q 1681 391 2138 391 
Q 2594 391 2855 752 
Q 3116 1113 3116 1747 
z
" transform="scale(0.015625)"/>
      <path id="DejaVuSans-61" d="M 2194 1759 
Q 1497 1759 1228 1600 
Q 959 1441 959 1056 
Q 959 750 1161 570 
Q 1363 391 1709 391 
Q 2188 391 2477 730 
Q 2766 1069 2766 1631 
L 2766 1759 
L 2194 1759 
z
M 3341 1997 
L 3341 0 
L 2766 0 
L 2766 531 
Q 2569 213 2275 61 
Q 1981 -91 1556 -91 
Q 1019 -91 701 211 
Q 384 513 384 1019 
Q 384 1609 779 1909 
Q 1175 2209 1959 2209 
L 2766 2209 
L 2766 2266 
Q 2766 2663 2505 2880 
Q 2244 3097 1772 3097 
Q 1472 3097 1187 3025 
Q 903 2953 641 2809 
L 641 3341 
Q 956 3463 1253 3523 
Q 1550 3584 1831 3584 
Q 2591 3584 2966 3190 
Q 3341 2797 3341 1997 
z
" transform="scale(0.015625)"/>
      <path id="DejaVuSans-74" d="M 1172 4494 
L 1172 3500 
L 2356 3500 
L 2356 3053 
L 1172 3053 
L 1172 1153 
Q 1172 725 1289 603 
Q 1406 481 1766 481 
L 2356 481 
L 2356 0 
L 1766 0 
Q 1100 0 847 248 
Q 594 497 594 1153 
L 594 3053 
L 172 3053 
L 172 3500 
L 594 3500 
L 594 4494 
L 1172 4494 
z
" transform="scale(0.015625)"/>
      <path id="DejaVuSans-68" d="M 3513 2113 
L 3513 0 
L 2938 0 
L 2938 2094 
Q 2938 2591 2744 2837 
Q 2550 3084 2163 3084 
Q 1697 3084 1428 2787 
Q 1159 2491 1159 1978 
L 1159 0 
L 581 0 
L 581 4863 
L 1159 4863 
L 1159 2956 
Q 1366 3272 1645 3428 
Q 1925 3584 2291 3584 
Q 2894 3584 3203 3211 
Q 3513 2838 3513 2113 
z
" transform="scale(0.015625)"/>
      <path id="DejaVuSans-73" d="M 2834 3397 
L 2834 2853 
Q 2591 2978 2328 3040 
Q 2066 3103 1784 3103 
Q 1356 3103 1142 2972 
Q 928 2841 928 2578 
Q 928 2378 1081 2264 
Q 1234 2150 1697 2047 
L 1894 2003 
Q 2506 1872 2764 1633 
Q 3022 1394 3022 966 
Q 3022 478 2636 193 
Q 2250 -91 1575 -91 
Q 1294 -91 989 -36 
Q 684 19 347 128 
L 347 722 
Q 666 556 975 473 
Q 1284 391 1588 391 
Q 1994 391 2212 530 
Q 2431 669 2431 922 
Q 2431 1156 2273 1281 
Q 2116 1406 1581 1522 
L 1381 1569 
Q 847 1681 609 1914 
Q 372 2147 372 2553 
Q 372 3047 722 3315 
Q 1072 3584 1716 3584 
Q 2034 3584 2315 3537 
Q 2597 3491 2834 3397 
z
" transform="scale(0.015625)"/>
      <path id="DejaVuSans-2c" d="M 750 794 
L 1409 794 
L 1409 256 
L 897 -744 
L 494 -744 
L 750 256 
L 750 794 
z
" transform="scale(0.015625)"/>
      <path id="DejaVuSans-65" d="M 3597 1894 
L 3597 1613 
L 953 1613 
Q 991 1019 1311 708 
Q 1631 397 2203 397 
Q 2534 397 2845 478 
Q 3156 559 3463 722 
L 3463 178 
Q 3153 47 2828 -22 
Q 2503 -91 2169 -91 
Q 1331 -91 842 396 
Q 353 884 353 1716 
Q 353 2575 817 3079 
Q 1281 3584 2069 3584 
Q 2775 3584 3186 3129 
Q 3597 2675 3597 1894 
z
M 3022 2063 
Q 3016 2534 2758 2815 
Q 2500 3097 2075 3097 
Q 1594 3097 1305 2825 
Q 1016 2553 972 2059 
L 3022 2063 
z
" transform="scale(0.015625)"/>
      <path id="DejaVuSans-63" d="M 3122 3366 
L 3122 2828 
Q 2878 2963 2633 3030 
Q 2388 3097 2138 3097 
Q 1578 3097 1268 2742 
Q 959 2388 959 1747 
Q 959 1106 1268 751 
Q 1578 397 2138 397 
Q 2388 397 2633 464 
Q 2878 531 3122 666 
L 3122 134 
Q 2881 22 2623 -34 
Q 2366 -91 2075 -91 
Q 1284 -91 818 406 
Q 353 903 353 1747 
Q 353 2603 823 3093 
Q 1294 3584 2113 3584 
Q 2378 3584 2631 3529 
Q 2884 3475 3122 3366 
z
" transform="scale(0.015625)"/>
      <path id="DejaVuSans-3d" d="M 678 2906 
L 4684 2906 
L 4684 2381 
L 678 2381 
L 678 2906 
z
M 678 1631 
L 4684 1631 
L 4684 1100 
L 678 1100 
L 678 1631 
z
" transform="scale(0.015625)"/>
      <path id="DejaVuSans-35" d="M 691 4666 
L 3169 4666 
L 3169 4134 
L 1269 4134 
L 1269 2991 
Q 1406 3038 1543 3061 
Q 1681 3084 1819 3084 
Q 2600 3084 3056 2656 
Q 3513 2228 3513 1497 
Q 3513 744 3044 326 
Q 2575 -91 1722 -91 
Q 1428 -91 1123 -41 
Q 819 9 494 109 
L 494 744 
Q 775 591 1075 516 
Q 1375 441 1709 441 
Q 2250 441 2565 725 
Q 2881 1009 2881 1497 
Q 2881 1984 2565 2268 
Q 2250 2553 1709 2553 
Q 1456 2553 1204 2497 
Q 953 2441 691 2322 
L 691 4666 
z
" transform="scale(0.015625)"/>
      <path id="DejaVuSans-30" d="M 2034 4250 
Q 1547 4250 1301 3770 
Q 1056 3291 1056 2328 
Q 1056 1369 1301 889 
Q 1547 409 2034 409 
Q 2525 409 2770 889 
Q 3016 1369 3016 2328 
Q 3016 3291 2770 3770 
Q 2525 4250 2034 4250 
z
M 2034 4750 
Q 2819 4750 3233 4129 
Q 3647 3509 3647 2328 
Q 3647 1150 3233 529 
Q 2819 -91 2034 -91 
Q 1250 -91 836 529 
Q 422 1150 422 2328 
Q 422 3509 836 4129 
Q 1250 4750 2034 4750 
z
" transform="scale(0.015625)"/>
      <path id="DejaVuSans-66" d="M 2375 4863 
L 2375 4384 
L 1825 4384 
Q 1516 4384 1395 4259 
Q 1275 4134 1275 3809 
L 1275 3500 
L 2222 3500 
L 2222 3053 
L 1275 3053 
L 1275 0 
L 697 0 
L 697 3053 
L 147 3053 
L 147 3500 
L 697 3500 
L 697 3744 
Q 697 4328 969 4595 
Q 1241 4863 1831 4863 
L 2375 4863 
z
" transform="scale(0.015625)"/>
      <path id="DejaVuSans-72" d="M 2631 2963 
Q 2534 3019 2420 3045 
Q 2306 3072 2169 3072 
Q 1681 3072 1420 2755 
Q 1159 2438 1159 1844 
L 1159 0 
L 581 0 
L 581 3500 
L 1159 3500 
L 1159 2956 
Q 1341 3275 1631 3429 
Q 1922 3584 2338 3584 
Q 2397 3584 2469 3576 
Q 2541 3569 2628 3553 
L 2631 2963 
z
" transform="scale(0.015625)"/>
      <path id="DejaVuSans-71" d="M 947 1747 
Q 947 1113 1208 752 
Q 1469 391 1925 391 
Q 2381 391 2643 752 
Q 2906 1113 2906 1747 
Q 2906 2381 2643 2742 
Q 2381 3103 1925 3103 
Q 1469 3103 1208 2742 
Q 947 2381 947 1747 
z
M 2906 525 
Q 2725 213 2448 61 
Q 2172 -91 1784 -91 
Q 1150 -91 751 415 
Q 353 922 353 1747 
Q 353 2572 751 3078 
Q 1150 3584 1784 3584 
Q 2172 3584 2448 3432 
Q 2725 3281 2906 2969 
L 2906 3500 
L 3481 3500 
L 3481 -1331 
L 2906 -1331 
L 2906 525 
z
" transform="scale(0.015625)"/>
      <path id="DejaVuSans-62" d="M 3116 1747 
Q 3116 2381 2855 2742 
Q 2594 3103 2138 3103 
Q 1681 3103 1420 2742 
Q 1159 2381 1159 1747 
Q 1159 1113 1420 752 
Q 1681 391 2138 391 
Q 2594 391 2855 752 
Q 3116 1113 3116 1747 
z
M 1159 2969 
Q 1341 3281 1617 3432 
Q 1894 3584 2278 3584 
Q 2916 3584 3314 3078 
Q 3713 2572 3713 1747 
Q 3713 922 3314 415 
Q 2916 -91 2278 -91 
Q 1894 -91 1617 61 
Q 1341 213 1159 525 
L 1159 0 
L 581 0 
L 581 4863 
L 1159 4863 
L 1159 2969 
z
" transform="scale(0.015625)"/>
      <path id="DejaVuSans-69" d="M 603 3500 
L 1178 3500 
L 1178 0 
L 603 0 
L 603 3500 
z
M 603 4863 
L 1178 4863 
L 1178 4134 
L 603 4134 
L 603 4863 
z
" transform="scale(0.015625)"/>
      <path id="DejaVuSans-6e" d="M 3513 2113 
L 3513 0 
L 2938 0 
L 2938 2094 
Q 2938 2591 2744 2837 
Q 2550 3084 2163 3084 
Q 1697 3084 1428 2787 
Q 1159 2491 1159 1978 
L 1159 0 
L 581 0 
L 581 3500 
L 1159 3500 
L 1159 2956 
Q 1366 3272 1645 3428 
Q 1925 3584 2291 3584 
Q 2894 3584 3203 3211 
Q 3513 2838 3513 2113 
z
" transform="scale(0.015625)"/>
      <path id="DejaVuSans-78" d="M 3513 3500 
L 2247 1797 
L 3578 0 
L 2900 0 
L 1881 1375 
L 863 0 
L 184 0 
L 1544 1831 
L 300 3500 
L 978 3500 
L 1906 2253 
L 2834 3500 
L 3513 3500 
z
" transform="scale(0.015625)"/>
      <path id="DejaVuSans-32" d="M 1228 531 
L 3431 531 
L 3431 0 
L 469 0 
L 469 531 
Q 828 903 1448 1529 
Q 2069 2156 2228 2338 
Q 2531 2678 2651 2914 
Q 2772 3150 2772 3378 
Q 2772 3750 2511 3984 
Q 2250 4219 1831 4219 
Q 1534 4219 1204 4116 
Q 875 4013 500 3803 
L 500 4441 
Q 881 4594 1212 4672 
Q 1544 4750 1819 4750 
Q 2544 4750 2975 4387 
Q 3406 4025 3406 3419 
Q 3406 3131 3298 2873 
Q 3191 2616 2906 2266 
Q 2828 2175 2409 1742 
Q 1991 1309 1228 531 
z
" transform="scale(0.015625)"/>
      <path id="DejaVuSans-6c" d="M 603 4863 
L 1178 4863 
L 1178 0 
L 603 0 
L 603 4863 
z
" transform="scale(0.015625)"/>
     </defs>
     <use xlink:href="#DejaVuSans-39"/>
     <use xlink:href="#DejaVuSans-36" transform="translate(63.623047 0)"/>
     <use xlink:href="#DejaVuSans-20" transform="translate(127.246094 0)"/>
     <use xlink:href="#DejaVuSans-70" transform="translate(159.033203 0)"/>
     <use xlink:href="#DejaVuSans-61" transform="translate(222.509766 0)"/>
     <use xlink:href="#DejaVuSans-74" transform="translate(283.789062 0)"/>
     <use xlink:href="#DejaVuSans-68" transform="translate(322.998047 0)"/>
     <use xlink:href="#DejaVuSans-73" transform="translate(386.376953 0)"/>
     <use xlink:href="#DejaVuSans-2c" transform="translate(438.476562 0)"/>
     <use xlink:href="#DejaVuSans-20" transform="translate(470.263672 0)"/>
     <use xlink:href="#DejaVuSans-65" transform="translate(502.050781 0)"/>
     <use xlink:href="#DejaVuSans-61" transform="translate(563.574219 0)"/>
     <use xlink:href="#DejaVuSans-63" transform="translate(624.853516 0)"/>
     <use xlink:href="#DejaVuSans-68" transform="translate(679.833984 0)"/>
     <use xlink:href="#DejaVuSans-20" transform="translate(743.212891 0)"/>
     <use xlink:href="#DejaVuSans-70" transform="translate(775 0)"/>
     <use xlink:href="#DejaVuSans-61" transform="translate(838.476562 0)"/>
     <use xlink:href="#DejaVuSans-74" transform="translate(899.755859 0)"/>
     <use xlink:href="#DejaVuSans-68" transform="translate(938.964844 0)"/>
     <use xlink:href="#DejaVuSans-20" transform="translate(1002.34375 0)"/>
     <use xlink:href="#DejaVuSans-3d" transform="translate(1034.130859 0)"/>
     <use xlink:href="#DejaVuSans-20" transform="translate(1117.919922 0)"/>
     <use xlink:href="#DejaVuSans-35" transform="translate(1149.707031 0)"/>
     <use xlink:href="#DejaVuSans-30" transform="translate(1213.330078 0)"/>
     <use xlink:href="#DejaVuSans-20" transform="translate(1276.953125 0)"/>
     <use xlink:href="#DejaVuSans-66" transform="translate(1308.740234 0)"/>
     <use xlink:href="#DejaVuSans-72" transform="translate(1343.945312 0)"/>
     <use xlink:href="#DejaVuSans-65" transform="translate(1382.808594 0)"/>
     <use xlink:href="#DejaVuSans-71" transform="translate(1444.332031 0)"/>
     <use xlink:href="#DejaVuSans-20" transform="translate(1507.808594 0)"/>
     <use xlink:href="#DejaVuSans-62" transform="translate(1539.595703 0)"/>
     <use xlink:href="#DejaVuSans-69" transform="translate(1603.072266 0)"/>
     <use xlink:href="#DejaVuSans-6e" transform="translate(1630.855469 0)"/>
     <use xlink:href="#DejaVuSans-73" transform="translate(1694.234375 0)"/>
     <use xlink:href="#DejaVuSans-20" transform="translate(1746.333984 0)"/>
     <use xlink:href="#DejaVuSans-78" transform="translate(1778.121094 0)"/>
     <use xlink:href="#DejaVuSans-20" transform="translate(1837.300781 0)"/>
     <use xlink:href="#DejaVuSans-32" transform="translate(1869.087891 0)"/>
     <use xlink:href="#DejaVuSans-20" transform="translate(1932.710938 0)"/>
     <use xlink:href="#DejaVuSans-63" transform="translate(1964.498047 0)"/>
     <use xlink:href="#DejaVuSans-68" transform="translate(2019.478516 0)"/>
     <use xlink:href="#DejaVuSans-61" transform="translate(2082.857422 0)"/>
     <use xlink:href="#DejaVuSans-6e" transform="translate(2144.136719 0)"/>
     <use xlink:href="#DejaVuSans-6e" transform="translate(2207.515625 0)"/>
     <use xlink:href="#DejaVuSans-65" transform="translate(2270.894531 0)"/>
     <use xlink:href="#DejaVuSans-6c" transform="translate(2332.417969 0)"/>
     <use xlink:href="#DejaVuSans-73" transform="translate(2360.201172 0)"/>
    </g>
   </g>
   <g id="patch_56">
    <path d="M 171.939934 222.66 
Q 191.616367 222.66 209.61575 222.66 
" style="fill: none; stroke: #334155; stroke-width: 1.5; stroke-linecap: round"/>
    <path d="M 205.61575 220.66 
L 209.61575 222.66 
L 205.61575 224.66 
z
" style="fill: #334155; stroke: #334155; stroke-width: 1.5; stroke-linecap: round"/>
   </g>
   <g id="text_4">
    <!-- slice one path -->
    <g style="fill: #334155" transform="translate(160.065561 201.636281) scale(0.09 -0.09)">
     <defs>
      <path id="DejaVuSans-6f" d="M 1959 3097 
Q 1497 3097 1228 2736 
Q 959 2375 959 1747 
Q 959 1119 1226 758 
Q 1494 397 1959 397 
Q 2419 397 2687 759 
Q 2956 1122 2956 1747 
Q 2956 2369 2687 2733 
Q 2419 3097 1959 3097 
z
M 1959 3584 
Q 2709 3584 3137 3096 
Q 3566 2609 3566 1747 
Q 3566 888 3137 398 
Q 2709 -91 1959 -91 
Q 1206 -91 779 398 
Q 353 888 353 1747 
Q 353 2609 779 3096 
Q 1206 3584 1959 3584 
z
" transform="scale(0.015625)"/>
     </defs>
     <use xlink:href="#DejaVuSans-73"/>
     <use xlink:href="#DejaVuSans-6c" transform="translate(52.099609 0)"/>
     <use xlink:href="#DejaVuSans-69" transform="translate(79.882812 0)"/>
     <use xlink:href="#DejaVuSans-63" transform="translate(107.666016 0)"/>
     <use xlink:href="#DejaVuSans-65" transform="translate(162.646484 0)"/>
     <use xlink:href="#DejaVuSans-20" transform="translate(224.169922 0)"/>
     <use xlink:href="#DejaVuSans-6f" transform="translate(255.957031 0)"/>
     <use xlink:href="#DejaVuSans-6e" transform="translate(317.138672 0)"/>
     <use xlink:href="#DejaVuSans-65" transform="translate(380.517578 0)"/>
     <use xlink:href="#DejaVuSans-20" transform="translate(442.041016 0)"/>
     <use xlink:href="#DejaVuSans-70" transform="translate(473.828125 0)"/>
     <use xlink:href="#DejaVuSans-61" transform="translate(537.304688 0)"/>
     <use xlink:href="#DejaVuSans-74" transform="translate(598.583984 0)"/>
     <use xlink:href="#DejaVuSans-68" transform="translate(637.792969 0)"/>
    </g>
   </g>
   <g id="text_5">
    <!-- Path -->
    <g transform="translate(222.655362 200.795375) scale(0.1 -0.1)">
     <defs>
      <path id="DejaVuSans-Bold-50" d="M 588 4666 
L 2584 4666 
Q 3475 4666 3951 4270 
Q 4428 3875 4428 3144 
Q 4428 2409 3951 2014 
Q 3475 1619 2584 1619 
L 1791 1619 
L 1791 0 
L 588 0 
L 588 4666 
z
M 1791 3794 
L 1791 2491 
L 2456 2491 
Q 2806 2491 2997 2661 
Q 3188 2831 3188 3144 
Q 3188 3456 2997 3625 
Q 2806 3794 2456 3794 
L 1791 3794 
z
" transform="scale(0.015625)"/>
      <path id="DejaVuSans-Bold-68" d="M 4056 2131 
L 4056 0 
L 2931 0 
L 2931 347 
L 2931 1625 
Q 2931 2084 2911 2256 
Q 2891 2428 2841 2509 
Q 2775 2619 2662 2680 
Q 2550 2741 2406 2741 
Q 2056 2741 1856 2470 
Q 1656 2200 1656 1722 
L 1656 0 
L 538 0 
L 538 4863 
L 1656 4863 
L 1656 2988 
Q 1909 3294 2193 3439 
Q 2478 3584 2822 3584 
Q 3428 3584 3742 3212 
Q 4056 2841 4056 2131 
z
" transform="scale(0.015625)"/>
     </defs>
     <use xlink:href="#DejaVuSans-Bold-50"/>
     <use xlink:href="#DejaVuSans-Bold-61" transform="translate(70.666016 0)"/>
     <use xlink:href="#DejaVuSans-Bold-74" transform="translate(138.146484 0)"/>
     <use xlink:href="#DejaVuSans-Bold-68" transform="translate(185.949219 0)"/>
    </g>
   </g>
   <g id="text_6">
    <!-- (50, 2) -->
    <g transform="translate(216.548409 260.051344) scale(0.09 -0.09)">
     <use xlink:href="#DejaVuSansMono-28"/>
     <use xlink:href="#DejaVuSansMono-35" transform="translate(60.205078 0)"/>
     <use xlink:href="#DejaVuSansMono-30" transform="translate(120.410156 0)"/>
     <use xlink:href="#DejaVuSansMono-2c" transform="translate(180.615234 0)"/>
     <use xlink:href="#DejaVuSansMono-20" transform="translate(240.820312 0)"/>
     <use xlink:href="#DejaVuSansMono-32" transform="translate(301.025391 0)"/>
     <use xlink:href="#DejaVuSansMono-29" transform="translate(361.230469 0)"/>
    </g>
   </g>
   <g id="text_7">
    <!-- Shared path encoder -->
    <g style="fill: #334155" transform="translate(356.873006 44.82) scale(0.11 -0.11)">
     <defs>
      <path id="DejaVuSans-Bold-53" d="M 3834 4519 
L 3834 3531 
Q 3450 3703 3084 3790 
Q 2719 3878 2394 3878 
Q 1963 3878 1756 3759 
Q 1550 3641 1550 3391 
Q 1550 3203 1689 3098 
Q 1828 2994 2194 2919 
L 2706 2816 
Q 3484 2659 3812 2340 
Q 4141 2022 4141 1434 
Q 4141 663 3683 286 
Q 3225 -91 2284 -91 
Q 1841 -91 1394 -6 
Q 947 78 500 244 
L 500 1259 
Q 947 1022 1364 901 
Q 1781 781 2169 781 
Q 2563 781 2772 912 
Q 2981 1044 2981 1288 
Q 2981 1506 2839 1625 
Q 2697 1744 2272 1838 
L 1806 1941 
Q 1106 2091 782 2419 
Q 459 2747 459 3303 
Q 459 4000 909 4375 
Q 1359 4750 2203 4750 
Q 2588 4750 2994 4692 
Q 3400 4634 3834 4519 
z
" transform="scale(0.015625)"/>
      <path id="DejaVuSans-Bold-72" d="M 3138 2547 
Q 2991 2616 2845 2648 
Q 2700 2681 2553 2681 
Q 2122 2681 1889 2404 
Q 1656 2128 1656 1613 
L 1656 0 
L 538 0 
L 538 3500 
L 1656 3500 
L 1656 2925 
Q 1872 3269 2151 3426 
Q 2431 3584 2822 3584 
Q 2878 3584 2943 3579 
Q 3009 3575 3134 3559 
L 3138 2547 
z
" transform="scale(0.015625)"/>
      <path id="DejaVuSans-Bold-64" d="M 2919 2988 
L 2919 4863 
L 4044 4863 
L 4044 0 
L 2919 0 
L 2919 506 
Q 2688 197 2409 53 
Q 2131 -91 1766 -91 
Q 1119 -91 703 423 
Q 288 938 288 1747 
Q 288 2556 703 3070 
Q 1119 3584 1766 3584 
Q 2128 3584 2408 3439 
Q 2688 3294 2919 2988 
z
M 2181 722 
Q 2541 722 2730 984 
Q 2919 1247 2919 1747 
Q 2919 2247 2730 2509 
Q 2541 2772 2181 2772 
Q 1825 2772 1636 2509 
Q 1447 2247 1447 1747 
Q 1447 1247 1636 984 
Q 1825 722 2181 722 
z
" transform="scale(0.015625)"/>
      <path id="DejaVuSans-Bold-63" d="M 3366 3391 
L 3366 2478 
Q 3138 2634 2908 2709 
Q 2678 2784 2431 2784 
Q 1963 2784 1702 2511 
Q 1441 2238 1441 1747 
Q 1441 1256 1702 982 
Q 1963 709 2431 709 
Q 2694 709 2930 787 
Q 3166 866 3366 1019 
L 3366 103 
Q 3103 6 2833 -42 
Q 2563 -91 2291 -91 
Q 1344 -91 809 395 
Q 275 881 275 1747 
Q 275 2613 809 3098 
Q 1344 3584 2291 3584 
Q 2566 3584 2833 3536 
Q 3100 3488 3366 3391 
z
" transform="scale(0.015625)"/>
      <path id="DejaVuSans-Bold-6f" d="M 2203 2784 
Q 1831 2784 1636 2517 
Q 1441 2250 1441 1747 
Q 1441 1244 1636 976 
Q 1831 709 2203 709 
Q 2569 709 2762 976 
Q 2956 1244 2956 1747 
Q 2956 2250 2762 2517 
Q 2569 2784 2203 2784 
z
M 2203 3584 
Q 3106 3584 3614 3096 
Q 4122 2609 4122 1747 
Q 4122 884 3614 396 
Q 3106 -91 2203 -91 
Q 1297 -91 786 396 
Q 275 884 275 1747 
Q 275 2609 786 3096 
Q 1297 3584 2203 3584 
z
" transform="scale(0.015625)"/>
     </defs>
     <use xlink:href="#DejaVuSans-Bold-53"/>
     <use xlink:href="#DejaVuSans-Bold-68" transform="translate(72.021484 0)"/>
     <use xlink:href="#DejaVuSans-Bold-61" transform="translate(143.212891 0)"/>
     <use xlink:href="#DejaVuSans-Bold-72" transform="translate(210.693359 0)"/>
     <use xlink:href="#DejaVuSans-Bold-65" transform="translate(260.009766 0)"/>
     <use xlink:href="#DejaVuSans-Bold-64" transform="translate(327.832031 0)"/>
     <use xlink:href="#DejaVuSans-Bold-20" transform="translate(399.414062 0)"/>
     <use xlink:href="#DejaVuSans-Bold-70" transform="translate(434.228516 0)"/>
     <use xlink:href="#DejaVuSans-Bold-61" transform="translate(505.810547 0)"/>
     <use xlink:href="#DejaVuSans-Bold-74" transform="translate(573.291016 0)"/>
     <use xlink:href="#DejaVuSans-Bold-68" transform="translate(621.09375 0)"/>
     <use xlink:href="#DejaVuSans-Bold-20" transform="translate(692.285156 0)"/>
     <use xlink:href="#DejaVuSans-Bold-65" transform="translate(727.099609 0)"/>
     <use xlink:href="#DejaVuSans-Bold-6e" transform="translate(794.921875 0)"/>
     <use xlink:href="#DejaVuSans-Bold-63" transform="translate(866.113281 0)"/>
     <use xlink:href="#DejaVuSans-Bold-6f" transform="translate(925.390625 0)"/>
     <use xlink:href="#DejaVuSans-Bold-64" transform="translate(994.091797 0)"/>
     <use xlink:href="#DejaVuSans-Bold-65" transform="translate(1065.673828 0)"/>
     <use xlink:href="#DejaVuSans-Bold-72" transform="translate(1133.496094 0)"/>
    </g>
   </g>
   <g id="patch_57">
    <path d="M 261.357144 222.66 
Q 272.904035 222.66 282.773875 222.66 
" style="fill: none; stroke: #334155; stroke-width: 1.5; stroke-linecap: round"/>
    <path d="M 278.773875 220.66 
L 282.773875 222.66 
L 278.773875 224.66 
z
" style="fill: #334155; stroke: #334155; stroke-width: 1.5; stroke-linecap: round"/>
   </g>
   <g id="text_8">
    <!-- Conv1D -->
    <g transform="translate(295.244635 201.274175) scale(0.1 -0.1)">
     <defs>
      <path id="DejaVuSans-Bold-43" d="M 4288 256 
Q 3956 84 3597 -3 
Q 3238 -91 2847 -91 
Q 1681 -91 1000 561 
Q 319 1213 319 2328 
Q 319 3447 1000 4098 
Q 1681 4750 2847 4750 
Q 3238 4750 3597 4662 
Q 3956 4575 4288 4403 
L 4288 3438 
Q 3953 3666 3628 3772 
Q 3303 3878 2944 3878 
Q 2300 3878 1931 3465 
Q 1563 3053 1563 2328 
Q 1563 1606 1931 1193 
Q 2300 781 2944 781 
Q 3303 781 3628 887 
Q 3953 994 4288 1222 
L 4288 256 
z
" transform="scale(0.015625)"/>
      <path id="DejaVuSans-Bold-76" d="M 97 3500 
L 1216 3500 
L 2088 1081 
L 2956 3500 
L 4078 3500 
L 2700 0 
L 1472 0 
L 97 3500 
z
" transform="scale(0.015625)"/>
      <path id="DejaVuSans-Bold-31" d="M 750 831 
L 1813 831 
L 1813 3847 
L 722 3622 
L 722 4441 
L 1806 4666 
L 2950 4666 
L 2950 831 
L 4013 831 
L 4013 0 
L 750 0 
L 750 831 
z
" transform="scale(0.015625)"/>
      <path id="DejaVuSans-Bold-44" d="M 1791 3756 
L 1791 909 
L 2222 909 
Q 2959 909 3348 1275 
Q 3738 1641 3738 2338 
Q 3738 3031 3350 3393 
Q 2963 3756 2222 3756 
L 1791 3756 
z
M 588 4666 
L 1856 4666 
Q 2919 4666 3439 4514 
Q 3959 4363 4331 4000 
Q 4659 3684 4818 3271 
Q 4978 2859 4978 2338 
Q 4978 1809 4818 1395 
Q 4659 981 4331 666 
Q 3956 303 3431 151 
Q 2906 0 1856 0 
L 588 0 
L 588 4666 
z
" transform="scale(0.015625)"/>
     </defs>
     <use xlink:href="#DejaVuSans-Bold-43"/>
     <use xlink:href="#DejaVuSans-Bold-6f" transform="translate(73.388672 0)"/>
     <use xlink:href="#DejaVuSans-Bold-6e" transform="translate(142.089844 0)"/>
     <use xlink:href="#DejaVuSans-Bold-76" transform="translate(213.28125 0)"/>
     <use xlink:href="#DejaVuSans-Bold-31" transform="translate(278.466797 0)"/>
     <use xlink:href="#DejaVuSans-Bold-44" transform="translate(348.046875 0)"/>
    </g>
   </g>
   <g id="text_9">
    <!-- k=5, 32 -->
    <g transform="translate(297.833776 258.437841) scale(0.09 -0.09)">
     <defs>
      <path id="DejaVuSansMono-6b" d="M 738 4863 
L 1331 4863 
L 1331 2047 
L 2841 3500 
L 3541 3500 
L 2163 2181 
L 3756 0 
L 3053 0 
L 1759 1806 
L 1331 1403 
L 1331 0 
L 738 0 
L 738 4863 
z
" transform="scale(0.015625)"/>
      <path id="DejaVuSansMono-3d" d="M 275 1638 
L 3578 1638 
L 3578 1100 
L 275 1100 
L 275 1638 
z
M 275 2906 
L 3578 2906 
L 3578 2375 
L 275 2375 
L 275 2906 
z
" transform="scale(0.015625)"/>
      <path id="DejaVuSansMono-33" d="M 2425 2497 
Q 2884 2375 3128 2064 
Q 3372 1753 3372 1288 
Q 3372 644 2939 276 
Q 2506 -91 1741 -91 
Q 1419 -91 1084 -31 
Q 750 28 428 141 
L 428 769 
Q 747 603 1056 522 
Q 1366 441 1672 441 
Q 2191 441 2469 675 
Q 2747 909 2747 1350 
Q 2747 1756 2469 1995 
Q 2191 2234 1716 2234 
L 1234 2234 
L 1234 2753 
L 1716 2753 
Q 2150 2753 2394 2943 
Q 2638 3134 2638 3475 
Q 2638 3834 2411 4026 
Q 2184 4219 1766 4219 
Q 1488 4219 1191 4156 
Q 894 4094 569 3969 
L 569 4550 
Q 947 4650 1242 4700 
Q 1538 4750 1766 4750 
Q 2447 4750 2855 4408 
Q 3263 4066 3263 3500 
Q 3263 3116 3048 2859 
Q 2834 2603 2425 2497 
z
" transform="scale(0.015625)"/>
     </defs>
     <use xlink:href="#DejaVuSansMono-6b"/>
     <use xlink:href="#DejaVuSansMono-3d" transform="translate(60.205078 0)"/>
     <use xlink:href="#DejaVuSansMono-35" transform="translate(120.410156 0)"/>
     <use xlink:href="#DejaVuSansMono-2c" transform="translate(180.615234 0)"/>
     <use xlink:href="#DejaVuSansMono-20" transform="translate(240.820312 0)"/>
     <use xlink:href="#DejaVuSansMono-33" transform="translate(301.025391 0)"/>
     <use xlink:href="#DejaVuSansMono-32" transform="translate(361.230469 0)"/>
    </g>
    <!-- (50, 32) -->
    <g transform="translate(295.124635 268.573247) scale(0.09 -0.09)">
     <use xlink:href="#DejaVuSansMono-28"/>
     <use xlink:href="#DejaVuSansMono-35" transform="translate(60.205078 0)"/>
     <use xlink:href="#DejaVuSansMono-30" transform="translate(120.410156 0)"/>
     <use xlink:href="#DejaVuSansMono-2c" transform="translate(180.615234 0)"/>
     <use xlink:href="#DejaVuSansMono-20" transform="translate(240.820312 0)"/>
     <use xlink:href="#DejaVuSansMono-33" transform="translate(301.025391 0)"/>
     <use xlink:href="#DejaVuSansMono-32" transform="translate(361.230469 0)"/>
     <use xlink:href="#DejaVuSansMono-29" transform="translate(421.435547 0)"/>
    </g>
   </g>
   <g id="patch_58">
    <path d="M 353.48056 222.66 
Q 365.027451 222.66 374.897291 222.66 
" style="fill: none; stroke: #334155; stroke-width: 1.5; stroke-linecap: round"/>
    <path d="M 370.897291 220.66 
L 374.897291 222.66 
L 370.897291 224.66 
z
" style="fill: #334155; stroke: #334155; stroke-width: 1.5; stroke-linecap: round"/>
   </g>
   <g id="text_10">
    <!-- Conv1D -->
    <g transform="translate(387.368051 201.000575) scale(0.1 -0.1)">
     <use xlink:href="#DejaVuSans-Bold-43"/>
     <use xlink:href="#DejaVuSans-Bold-6f" transform="translate(73.388672 0)"/>
     <use xlink:href="#DejaVuSans-Bold-6e" transform="translate(142.089844 0)"/>
     <use xlink:href="#DejaVuSans-Bold-76" transform="translate(213.28125 0)"/>
     <use xlink:href="#DejaVuSans-Bold-31" transform="translate(278.466797 0)"/>
     <use xlink:href="#DejaVuSans-Bold-44" transform="translate(348.046875 0)"/>
    </g>
   </g>
   <g id="text_11">
    <!-- k=3, s=2 -->
    <g transform="translate(387.248051 242.295441) scale(0.09 -0.09)">
     <defs>
      <path id="DejaVuSansMono-73" d="M 3041 3378 
L 3041 2816 
Q 2794 2959 2544 3031 
Q 2294 3103 2034 3103 
Q 1644 3103 1451 2976 
Q 1259 2850 1259 2591 
Q 1259 2356 1403 2240 
Q 1547 2125 2119 2016 
L 2350 1972 
Q 2778 1891 2998 1647 
Q 3219 1403 3219 1013 
Q 3219 494 2850 201 
Q 2481 -91 1825 -91 
Q 1566 -91 1281 -36 
Q 997 19 666 128 
L 666 722 
Q 988 556 1281 473 
Q 1575 391 1838 391 
Q 2219 391 2428 545 
Q 2638 700 2638 978 
Q 2638 1378 1872 1531 
L 1847 1538 
L 1631 1581 
Q 1134 1678 906 1908 
Q 678 2138 678 2534 
Q 678 3038 1018 3311 
Q 1359 3584 1991 3584 
Q 2272 3584 2531 3532 
Q 2791 3481 3041 3378 
z
" transform="scale(0.015625)"/>
     </defs>
     <use xlink:href="#DejaVuSansMono-6b"/>
     <use xlink:href="#DejaVuSansMono-3d" transform="translate(60.205078 0)"/>
     <use xlink:href="#DejaVuSansMono-33" transform="translate(120.410156 0)"/>
     <use xlink:href="#DejaVuSansMono-2c" transform="translate(180.615234 0)"/>
     <use xlink:href="#DejaVuSansMono-20" transform="translate(240.820312 0)"/>
     <use xlink:href="#DejaVuSansMono-73" transform="translate(301.025391 0)"/>
     <use xlink:href="#DejaVuSansMono-3d" transform="translate(361.230469 0)"/>
     <use xlink:href="#DejaVuSansMono-32" transform="translate(421.435547 0)"/>
    </g>
    <!-- (25, 32) -->
    <g transform="translate(387.248051 252.430847) scale(0.09 -0.09)">
     <use xlink:href="#DejaVuSansMono-28"/>
     <use xlink:href="#DejaVuSansMono-32" transform="translate(60.205078 0)"/>
     <use xlink:href="#DejaVuSansMono-35" transform="translate(120.410156 0)"/>
     <use xlink:href="#DejaVuSansMono-2c" transform="translate(180.615234 0)"/>
     <use xlink:href="#DejaVuSansMono-20" transform="translate(240.820312 0)"/>
     <use xlink:href="#DejaVuSansMono-33" transform="translate(301.025391 0)"/>
     <use xlink:href="#DejaVuSansMono-32" transform="translate(361.230469 0)"/>
     <use xlink:href="#DejaVuSansMono-29" transform="translate(421.435547 0)"/>
    </g>
   </g>
   <g id="patch_59">
    <path d="M 445.603976 222.66 
Q 457.150866 222.66 467.020706 222.66 
" style="fill: none; stroke: #334155; stroke-width: 1.5; stroke-linecap: round"/>
    <path d="M 463.020706 220.66 
L 467.020706 222.66 
L 463.020706 224.66 
z
" style="fill: #334155; stroke: #334155; stroke-width: 1.5; stroke-linecap: round"/>
   </g>
   <g id="text_12">
    <!-- Conv1D -->
    <g transform="translate(483.013832 205.104575) scale(0.1 -0.1)">
     <use xlink:href="#DejaVuSans-Bold-43"/>
     <use xlink:href="#DejaVuSans-Bold-6f" transform="translate(73.388672 0)"/>
     <use xlink:href="#DejaVuSans-Bold-6e" transform="translate(142.089844 0)"/>
     <use xlink:href="#DejaVuSans-Bold-76" transform="translate(213.28125 0)"/>
     <use xlink:href="#DejaVuSans-Bold-31" transform="translate(278.466797 0)"/>
     <use xlink:href="#DejaVuSans-Bold-44" transform="translate(348.046875 0)"/>
    </g>
   </g>
   <g id="text_13">
    <!-- k=3, s=2 -->
    <g transform="translate(482.893832 236.481441) scale(0.09 -0.09)">
     <use xlink:href="#DejaVuSansMono-6b"/>
     <use xlink:href="#DejaVuSansMono-3d" transform="translate(60.205078 0)"/>
     <use xlink:href="#DejaVuSansMono-33" transform="translate(120.410156 0)"/>
     <use xlink:href="#DejaVuSansMono-2c" transform="translate(180.615234 0)"/>
     <use xlink:href="#DejaVuSansMono-20" transform="translate(240.820312 0)"/>
     <use xlink:href="#DejaVuSansMono-73" transform="translate(301.025391 0)"/>
     <use xlink:href="#DejaVuSansMono-3d" transform="translate(361.230469 0)"/>
     <use xlink:href="#DejaVuSansMono-32" transform="translate(421.435547 0)"/>
    </g>
    <!-- (13, 64) -->
    <g transform="translate(482.893832 246.616847) scale(0.09 -0.09)">
     <defs>
      <path id="DejaVuSansMono-31" d="M 844 531 
L 1825 531 
L 1825 4097 
L 769 3859 
L 769 4434 
L 1819 4666 
L 2450 4666 
L 2450 531 
L 3419 531 
L 3419 0 
L 844 0 
L 844 531 
z
" transform="scale(0.015625)"/>
      <path id="DejaVuSansMono-34" d="M 2297 4091 
L 825 1625 
L 2297 1625 
L 2297 4091 
z
M 2194 4666 
L 2925 4666 
L 2925 1625 
L 3547 1625 
L 3547 1113 
L 2925 1113 
L 2925 0 
L 2297 0 
L 2297 1113 
L 319 1113 
L 319 1709 
L 2194 4666 
z
" transform="scale(0.015625)"/>
     </defs>
     <use xlink:href="#DejaVuSansMono-28"/>
     <use xlink:href="#DejaVuSansMono-31" transform="translate(60.205078 0)"/>
     <use xlink:href="#DejaVuSansMono-33" transform="translate(120.410156 0)"/>
     <use xlink:href="#DejaVuSansMono-2c" transform="translate(180.615234 0)"/>
     <use xlink:href="#DejaVuSansMono-20" transform="translate(240.820312 0)"/>
     <use xlink:href="#DejaVuSansMono-36" transform="translate(301.025391 0)"/>
     <use xlink:href="#DejaVuSansMono-34" transform="translate(361.230469 0)"/>
     <use xlink:href="#DejaVuSansMono-29" transform="translate(421.435547 0)"/>
    </g>
   </g>
   <g id="patch_60">
    <path d="M 545.85229 222.66 
Q 556.047504 222.66 564.565668 222.66 
" style="fill: none; stroke: #334155; stroke-width: 1.5; stroke-linecap: round"/>
    <path d="M 560.565668 220.66 
L 564.565668 222.66 
L 560.565668 224.66 
z
" style="fill: #334155; stroke: #334155; stroke-width: 1.5; stroke-linecap: round"/>
   </g>
   <g id="text_14">
    <!-- Flatten -->
    <g transform="translate(577.810754 207.566975) scale(0.1 -0.1)">
     <defs>
      <path id="DejaVuSans-Bold-46" d="M 588 4666 
L 3834 4666 
L 3834 3756 
L 1791 3756 
L 1791 2888 
L 3713 2888 
L 3713 1978 
L 1791 1978 
L 1791 0 
L 588 0 
L 588 4666 
z
" transform="scale(0.015625)"/>
     </defs>
     <use xlink:href="#DejaVuSans-Bold-46"/>
     <use xlink:href="#DejaVuSans-Bold-6c" transform="translate(68.310547 0)"/>
     <use xlink:href="#DejaVuSans-Bold-61" transform="translate(102.587891 0)"/>
     <use xlink:href="#DejaVuSans-Bold-74" transform="translate(170.068359 0)"/>
     <use xlink:href="#DejaVuSans-Bold-74" transform="translate(217.871094 0)"/>
     <use xlink:href="#DejaVuSans-Bold-65" transform="translate(265.673828 0)"/>
     <use xlink:href="#DejaVuSans-Bold-6e" transform="translate(333.496094 0)"/>
    </g>
   </g>
   <g id="text_15">
    <!-- (832,) -->
    <g transform="translate(581.790285 238.060744) scale(0.09 -0.09)">
     <defs>
      <path id="DejaVuSansMono-38" d="M 1925 2216 
Q 1503 2216 1273 1980 
Q 1044 1744 1044 1313 
Q 1044 881 1276 642 
Q 1509 403 1925 403 
Q 2350 403 2579 639 
Q 2809 875 2809 1313 
Q 2809 1741 2576 1978 
Q 2344 2216 1925 2216 
z
M 1375 2478 
Q 972 2581 745 2862 
Q 519 3144 519 3541 
Q 519 4097 897 4423 
Q 1275 4750 1925 4750 
Q 2578 4750 2956 4423 
Q 3334 4097 3334 3541 
Q 3334 3144 3107 2862 
Q 2881 2581 2478 2478 
Q 2947 2375 3195 2062 
Q 3444 1750 3444 1253 
Q 3444 622 3041 265 
Q 2638 -91 1925 -91 
Q 1213 -91 811 264 
Q 409 619 409 1247 
Q 409 1747 657 2061 
Q 906 2375 1375 2478 
z
M 1147 3481 
Q 1147 3106 1347 2909 
Q 1547 2713 1925 2713 
Q 2306 2713 2506 2909 
Q 2706 3106 2706 3481 
Q 2706 3863 2507 4063 
Q 2309 4263 1925 4263 
Q 1547 4263 1347 4061 
Q 1147 3859 1147 3481 
z
" transform="scale(0.015625)"/>
     </defs>
     <use xlink:href="#DejaVuSansMono-28"/>
     <use xlink:href="#DejaVuSansMono-38" transform="translate(60.205078 0)"/>
     <use xlink:href="#DejaVuSansMono-33" transform="translate(120.410156 0)"/>
     <use xlink:href="#DejaVuSansMono-32" transform="translate(180.615234 0)"/>
     <use xlink:href="#DejaVuSansMono-2c" transform="translate(240.820312 0)"/>
     <use xlink:href="#DejaVuSansMono-29" transform="translate(301.025391 0)"/>
    </g>
   </g>
   <g id="patch_61">
    <path d="M 635.269831 222.66 
Q 646.816722 222.66 656.686562 222.66 
" style="fill: none; stroke: #334155; stroke-width: 1.5; stroke-linecap: round"/>
    <path d="M 652.686562 220.66 
L 656.686562 222.66 
L 652.686562 224.66 
z
" style="fill: #334155; stroke: #334155; stroke-width: 1.5; stroke-linecap: round"/>
   </g>
   <g id="text_16">
    <!-- Dense -->
    <g transform="translate(669.990282 209.208575) scale(0.1 -0.1)">
     <use xlink:href="#DejaVuSans-Bold-44"/>
     <use xlink:href="#DejaVuSans-Bold-65" transform="translate(83.007812 0)"/>
     <use xlink:href="#DejaVuSans-Bold-6e" transform="translate(150.830078 0)"/>
     <use xlink:href="#DejaVuSans-Bold-73" transform="translate(222.021484 0)"/>
     <use xlink:href="#DejaVuSans-Bold-65" transform="translate(281.542969 0)"/>
    </g>
   </g>
   <g id="text_17">
    <!-- (32,) -->
    <g transform="translate(673.913329 235.735144) scale(0.09 -0.09)">
     <use xlink:href="#DejaVuSansMono-28"/>
     <use xlink:href="#DejaVuSansMono-33" transform="translate(60.205078 0)"/>
     <use xlink:href="#DejaVuSansMono-32" transform="translate(120.410156 0)"/>
     <use xlink:href="#DejaVuSansMono-2c" transform="translate(180.615234 0)"/>
     <use xlink:href="#DejaVuSansMono-29" transform="translate(240.820312 0)"/>
    </g>
   </g>
   <g id="patch_62">
    <path d="M 721.972072 222.66 
Q 743.004374 222.66 762.359626 222.66 
" style="fill: none; stroke: #334155; stroke-width: 1.5; stroke-linecap: round"/>
    <path d="M 758.359626 220.66 
L 762.359626 222.66 
L 758.359626 224.66 
z
" style="fill: #334155; stroke: #334155; stroke-width: 1.5; stroke-linecap: round"/>
   </g>
   <g id="text_18">
    <!-- apply to all 96 paths -->
    <g style="fill: #334155" transform="translate(696.822079 201.636281) scale(0.09 -0.09)">
     <defs>
      <path id="DejaVuSans-79" d="M 2059 -325 
Q 1816 -950 1584 -1140 
Q 1353 -1331 966 -1331 
L 506 -1331 
L 506 -850 
L 844 -850 
Q 1081 -850 1212 -737 
Q 1344 -625 1503 -206 
L 1606 56 
L 191 3500 
L 800 3500 
L 1894 763 
L 2988 3500 
L 3597 3500 
L 2059 -325 
z
" transform="scale(0.015625)"/>
     </defs>
     <use xlink:href="#DejaVuSans-61"/>
     <use xlink:href="#DejaVuSans-70" transform="translate(61.279297 0)"/>
     <use xlink:href="#DejaVuSans-70" transform="translate(124.755859 0)"/>
     <use xlink:href="#DejaVuSans-6c" transform="translate(188.232422 0)"/>
     <use xlink:href="#DejaVuSans-79" transform="translate(216.015625 0)"/>
     <use xlink:href="#DejaVuSans-20" transform="translate(275.195312 0)"/>
     <use xlink:href="#DejaVuSans-74" transform="translate(306.982422 0)"/>
     <use xlink:href="#DejaVuSans-6f" transform="translate(346.191406 0)"/>
     <use xlink:href="#DejaVuSans-20" transform="translate(407.373047 0)"/>
     <use xlink:href="#DejaVuSans-61" transform="translate(439.160156 0)"/>
     <use xlink:href="#DejaVuSans-6c" transform="translate(500.439453 0)"/>
     <use xlink:href="#DejaVuSans-6c" transform="translate(528.222656 0)"/>
     <use xlink:href="#DejaVuSans-20" transform="translate(556.005859 0)"/>
     <use xlink:href="#DejaVuSans-39" transform="translate(587.792969 0)"/>
     <use xlink:href="#DejaVuSans-36" transform="translate(651.416016 0)"/>
     <use xlink:href="#DejaVuSans-20" transform="translate(715.039062 0)"/>
     <use xlink:href="#DejaVuSans-70" transform="translate(746.826172 0)"/>
     <use xlink:href="#DejaVuSans-61" transform="translate(810.302734 0)"/>
     <use xlink:href="#DejaVuSans-74" transform="translate(871.582031 0)"/>
     <use xlink:href="#DejaVuSans-68" transform="translate(910.791016 0)"/>
     <use xlink:href="#DejaVuSans-73" transform="translate(974.169922 0)"/>
    </g>
   </g>
   <g id="text_19">
    <!-- Embeddings -->
    <g transform="translate(790.24927 183.656313) scale(0.1 -0.1)">
     <defs>
      <path id="DejaVuSans-Bold-45" d="M 588 4666 
L 3834 4666 
L 3834 3756 
L 1791 3756 
L 1791 2888 
L 3713 2888 
L 3713 1978 
L 1791 1978 
L 1791 909 
L 3903 909 
L 3903 0 
L 588 0 
L 588 4666 
z
" transform="scale(0.015625)"/>
      <path id="DejaVuSans-Bold-62" d="M 2400 722 
Q 2759 722 2948 984 
Q 3138 1247 3138 1747 
Q 3138 2247 2948 2509 
Q 2759 2772 2400 2772 
Q 2041 2772 1848 2508 
Q 1656 2244 1656 1747 
Q 1656 1250 1848 986 
Q 2041 722 2400 722 
z
M 1656 2988 
Q 1888 3294 2169 3439 
Q 2450 3584 2816 3584 
Q 3463 3584 3878 3070 
Q 4294 2556 4294 1747 
Q 4294 938 3878 423 
Q 3463 -91 2816 -91 
Q 2450 -91 2169 54 
Q 1888 200 1656 506 
L 1656 0 
L 538 0 
L 538 4863 
L 1656 4863 
L 1656 2988 
z
" transform="scale(0.015625)"/>
      <path id="DejaVuSans-Bold-69" d="M 538 3500 
L 1656 3500 
L 1656 0 
L 538 0 
L 538 3500 
z
M 538 4863 
L 1656 4863 
L 1656 3950 
L 538 3950 
L 538 4863 
z
" transform="scale(0.015625)"/>
      <path id="DejaVuSans-Bold-67" d="M 2919 594 
Q 2688 288 2409 144 
Q 2131 0 1766 0 
Q 1125 0 706 504 
Q 288 1009 288 1791 
Q 288 2575 706 3076 
Q 1125 3578 1766 3578 
Q 2131 3578 2409 3434 
Q 2688 3291 2919 2981 
L 2919 3500 
L 4044 3500 
L 4044 353 
Q 4044 -491 3511 -936 
Q 2978 -1381 1966 -1381 
Q 1638 -1381 1331 -1331 
Q 1025 -1281 716 -1178 
L 716 -306 
Q 1009 -475 1290 -558 
Q 1572 -641 1856 -641 
Q 2406 -641 2662 -400 
Q 2919 -159 2919 353 
L 2919 594 
z
M 2181 2772 
Q 1834 2772 1640 2515 
Q 1447 2259 1447 1791 
Q 1447 1309 1634 1061 
Q 1822 813 2181 813 
Q 2531 813 2725 1069 
Q 2919 1325 2919 1791 
Q 2919 2259 2725 2515 
Q 2531 2772 2181 2772 
z
" transform="scale(0.015625)"/>
     </defs>
     <use xlink:href="#DejaVuSans-Bold-45"/>
     <use xlink:href="#DejaVuSans-Bold-6d" transform="translate(68.310547 0)"/>
     <use xlink:href="#DejaVuSans-Bold-62" transform="translate(172.509766 0)"/>
     <use xlink:href="#DejaVuSans-Bold-65" transform="translate(244.091797 0)"/>
     <use xlink:href="#DejaVuSans-Bold-64" transform="translate(311.914062 0)"/>
     <use xlink:href="#DejaVuSans-Bold-64" transform="translate(383.496094 0)"/>
     <use xlink:href="#DejaVuSans-Bold-69" transform="translate(455.078125 0)"/>
     <use xlink:href="#DejaVuSans-Bold-6e" transform="translate(489.355469 0)"/>
     <use xlink:href="#DejaVuSans-Bold-67" transform="translate(560.546875 0)"/>
     <use xlink:href="#DejaVuSans-Bold-73" transform="translate(632.128906 0)"/>
    </g>
   </g>
   <g id="text_20">
    <!-- (96, 32) -->
    <g transform="translate(803.158177 233.033344) scale(0.09 -0.09)">
     <use xlink:href="#DejaVuSansMono-28"/>
     <use xlink:href="#DejaVuSansMono-39" transform="translate(60.205078 0)"/>
     <use xlink:href="#DejaVuSansMono-36" transform="translate(120.410156 0)"/>
     <use xlink:href="#DejaVuSansMono-2c" transform="translate(180.615234 0)"/>
     <use xlink:href="#DejaVuSansMono-20" transform="translate(240.820312 0)"/>
     <use xlink:href="#DejaVuSansMono-33" transform="translate(301.025391 0)"/>
     <use xlink:href="#DejaVuSansMono-32" transform="translate(361.230469 0)"/>
     <use xlink:href="#DejaVuSansMono-29" transform="translate(421.435547 0)"/>
    </g>
   </g>
   <g id="patch_63">
    <path d="M 862.867204 222.66 
Q 881.191163 222.66 897.838071 222.66 
" style="fill: none; stroke: #334155; stroke-width: 1.5; stroke-linecap: round"/>
    <path d="M 893.838071 220.66 
L 897.838071 222.66 
L 893.838071 224.66 
z
" style="fill: #334155; stroke: #334155; stroke-width: 1.5; stroke-linecap: round"/>
   </g>
   <g id="text_21">
    <!-- Flatten -->
    <g transform="translate(915.145025 211.465775) scale(0.1 -0.1)">
     <use xlink:href="#DejaVuSans-Bold-46"/>
     <use xlink:href="#DejaVuSans-Bold-6c" transform="translate(68.310547 0)"/>
     <use xlink:href="#DejaVuSans-Bold-61" transform="translate(102.587891 0)"/>
     <use xlink:href="#DejaVuSans-Bold-74" transform="translate(170.068359 0)"/>
     <use xlink:href="#DejaVuSans-Bold-74" transform="translate(217.871094 0)"/>
     <use xlink:href="#DejaVuSans-Bold-65" transform="translate(265.673828 0)"/>
     <use xlink:href="#DejaVuSans-Bold-6e" transform="translate(333.496094 0)"/>
    </g>
   </g>
   <g id="text_22">
    <!-- (3072,) -->
    <g transform="translate(916.415416 244.934944) scale(0.09 -0.09)">
     <defs>
      <path id="DejaVuSansMono-37" d="M 434 4666 
L 3372 4666 
L 3372 4397 
L 1703 0 
L 1044 0 
L 2669 4134 
L 434 4134 
L 434 4666 
z
" transform="scale(0.015625)"/>
     </defs>
     <use xlink:href="#DejaVuSansMono-28"/>
     <use xlink:href="#DejaVuSansMono-33" transform="translate(60.205078 0)"/>
     <use xlink:href="#DejaVuSansMono-30" transform="translate(120.410156 0)"/>
     <use xlink:href="#DejaVuSansMono-37" transform="translate(180.615234 0)"/>
     <use xlink:href="#DejaVuSansMono-32" transform="translate(240.820312 0)"/>
     <use xlink:href="#DejaVuSansMono-2c" transform="translate(301.025391 0)"/>
     <use xlink:href="#DejaVuSansMono-29" transform="translate(361.230469 0)"/>
    </g>
   </g>
   <g id="patch_64">
    <path d="M 976.663741 222.66 
Q 990.922362 222.66 1003.503932 222.66 
" style="fill: none; stroke: #334155; stroke-width: 1.5; stroke-linecap: round"/>
    <path d="M 999.503932 220.66 
L 1003.503932 222.66 
L 999.503932 224.66 
z
" style="fill: #334155; stroke: #334155; stroke-width: 1.5; stroke-linecap: round"/>
   </g>
   <g id="text_23">
    <!-- Dense -->
    <g transform="translate(1020.872115 209.824175) scale(0.1 -0.1)">
     <use xlink:href="#DejaVuSans-Bold-44"/>
     <use xlink:href="#DejaVuSans-Bold-65" transform="translate(83.007812 0)"/>
     <use xlink:href="#DejaVuSans-Bold-6e" transform="translate(150.830078 0)"/>
     <use xlink:href="#DejaVuSans-Bold-73" transform="translate(222.021484 0)"/>
     <use xlink:href="#DejaVuSans-Bold-65" transform="translate(281.542969 0)"/>
    </g>
   </g>
   <g id="text_24">
    <!-- (256,) -->
    <g transform="translate(1022.086021 247.260544) scale(0.09 -0.09)">
     <use xlink:href="#DejaVuSansMono-28"/>
     <use xlink:href="#DejaVuSansMono-32" transform="translate(60.205078 0)"/>
     <use xlink:href="#DejaVuSansMono-35" transform="translate(120.410156 0)"/>
     <use xlink:href="#DejaVuSansMono-36" transform="translate(180.615234 0)"/>
     <use xlink:href="#DejaVuSansMono-2c" transform="translate(240.820312 0)"/>
     <use xlink:href="#DejaVuSansMono-29" transform="translate(301.025391 0)"/>
    </g>
   </g>
   <g id="patch_65">
    <path d="M 1076.916685 222.66 
Q 1089.820638 222.66 1101.04754 222.66 
" style="fill: none; stroke: #334155; stroke-width: 1.5; stroke-linecap: round"/>
    <path d="M 1097.04754 220.66 
L 1101.04754 222.66 
L 1097.04754 224.66 
z
" style="fill: #334155; stroke: #334155; stroke-width: 1.5; stroke-linecap: round"/>
   </g>
   <g id="text_25">
    <!-- Dense -->
    <g transform="translate(1117.059799 213.107375) scale(0.1 -0.1)">
     <use xlink:href="#DejaVuSans-Bold-44"/>
     <use xlink:href="#DejaVuSans-Bold-65" transform="translate(83.007812 0)"/>
     <use xlink:href="#DejaVuSans-Bold-6e" transform="translate(150.830078 0)"/>
     <use xlink:href="#DejaVuSans-Bold-73" transform="translate(222.021484 0)"/>
     <use xlink:href="#DejaVuSans-Bold-65" transform="translate(281.542969 0)"/>
    </g>
   </g>
   <g id="text_26">
    <!-- (128,) -->
    <g transform="translate(1118.273705 242.609344) scale(0.09 -0.09)">
     <use xlink:href="#DejaVuSansMono-28"/>
     <use xlink:href="#DejaVuSansMono-31" transform="translate(60.205078 0)"/>
     <use xlink:href="#DejaVuSansMono-32" transform="translate(120.410156 0)"/>
     <use xlink:href="#DejaVuSansMono-38" transform="translate(180.615234 0)"/>
     <use xlink:href="#DejaVuSansMono-2c" transform="translate(240.820312 0)"/>
     <use xlink:href="#DejaVuSansMono-29" transform="translate(301.025391 0)"/>
    </g>
   </g>
   <g id="patch_66">
    <path d="M 1171.753251 222.66 
Q 1183.300142 222.66 1193.169982 222.66 
" style="fill: none; stroke: #334155; stroke-width: 1.5; stroke-linecap: round"/>
    <path d="M 1189.169982 220.66 
L 1193.169982 222.66 
L 1189.169982 224.66 
z
" style="fill: #334155; stroke: #334155; stroke-width: 1.5; stroke-linecap: round"/>
   </g>
   <g id="text_27">
    <!-- Output -->
    <g transform="translate(1202.046717 217.211375) scale(0.1 -0.1)">
     <defs>
      <path id="DejaVuSans-Bold-4f" d="M 2719 3878 
Q 2169 3878 1866 3472 
Q 1563 3066 1563 2328 
Q 1563 1594 1866 1187 
Q 2169 781 2719 781 
Q 3272 781 3575 1187 
Q 3878 1594 3878 2328 
Q 3878 3066 3575 3472 
Q 3272 3878 2719 3878 
z
M 2719 4750 
Q 3844 4750 4481 4106 
Q 5119 3463 5119 2328 
Q 5119 1197 4481 553 
Q 3844 -91 2719 -91 
Q 1597 -91 958 553 
Q 319 1197 319 2328 
Q 319 3463 958 4106 
Q 1597 4750 2719 4750 
z
" transform="scale(0.015625)"/>
     </defs>
     <use xlink:href="#DejaVuSans-Bold-4f"/>
     <use xlink:href="#DejaVuSans-Bold-75" transform="translate(85.009766 0)"/>
     <use xlink:href="#DejaVuSans-Bold-74" transform="translate(156.201172 0)"/>
     <use xlink:href="#DejaVuSans-Bold-70" transform="translate(204.003906 0)"/>
     <use xlink:href="#DejaVuSans-Bold-75" transform="translate(275.585938 0)"/>
     <use xlink:href="#DejaVuSans-Bold-74" transform="translate(346.777344 0)"/>
    </g>
   </g>
   <g id="text_28">
    <!-- (3,) -->
    <g transform="translate(1210.93828 236.795344) scale(0.09 -0.09)">
     <use xlink:href="#DejaVuSansMono-28"/>
     <use xlink:href="#DejaVuSansMono-33" transform="translate(60.205078 0)"/>
     <use xlink:href="#DejaVuSansMono-2c" transform="translate(120.410156 0)"/>
     <use xlink:href="#DejaVuSansMono-29" transform="translate(180.615234 0)"/>
    </g>
   </g>
   <g id="text_29">
    <!-- Dense fusion head -->
    <g style="fill: #334155" transform="translate(963.229113 85.86) scale(0.11 -0.11)">
     <defs>
      <path id="DejaVuSans-Bold-66" d="M 2841 4863 
L 2841 4128 
L 2222 4128 
Q 1984 4128 1890 4042 
Q 1797 3956 1797 3744 
L 1797 3500 
L 2753 3500 
L 2753 2700 
L 1797 2700 
L 1797 0 
L 678 0 
L 678 2700 
L 122 2700 
L 122 3500 
L 678 3500 
L 678 3744 
Q 678 4316 997 4589 
Q 1316 4863 1984 4863 
L 2841 4863 
z
" transform="scale(0.015625)"/>
     </defs>
     <use xlink:href="#DejaVuSans-Bold-44"/>
     <use xlink:href="#DejaVuSans-Bold-65" transform="translate(83.007812 0)"/>
     <use xlink:href="#DejaVuSans-Bold-6e" transform="translate(150.830078 0)"/>
     <use xlink:href="#DejaVuSans-Bold-73" transform="translate(222.021484 0)"/>
     <use xlink:href="#DejaVuSans-Bold-65" transform="translate(281.542969 0)"/>
     <use xlink:href="#DejaVuSans-Bold-20" transform="translate(349.365234 0)"/>
     <use xlink:href="#DejaVuSans-Bold-66" transform="translate(384.179688 0)"/>
     <use xlink:href="#DejaVuSans-Bold-75" transform="translate(427.685547 0)"/>
     <use xlink:href="#DejaVuSans-Bold-73" transform="translate(498.876953 0)"/>
     <use xlink:href="#DejaVuSans-Bold-69" transform="translate(558.398438 0)"/>
     <use xlink:href="#DejaVuSans-Bold-6f" transform="translate(592.675781 0)"/>
     <use xlink:href="#DejaVuSans-Bold-6e" transform="translate(661.376953 0)"/>
     <use xlink:href="#DejaVuSans-Bold-20" transform="translate(732.568359 0)"/>
     <use xlink:href="#DejaVuSans-Bold-68" transform="translate(767.382812 0)"/>
     <use xlink:href="#DejaVuSans-Bold-65" transform="translate(838.574219 0)"/>
     <use xlink:href="#DejaVuSans-Bold-61" transform="translate(906.396484 0)"/>
     <use xlink:href="#DejaVuSans-Bold-64" transform="translate(973.876953 0)"/>
    </g>
   </g>
   <g id="text_30">
    <!-- xyz = (x, y, z) -->
    <g style="fill: #334155" transform="translate(1189.992393 332.1) scale(0.09 -0.09)">
     <defs>
      <path id="DejaVuSans-7a" d="M 353 3500 
L 3084 3500 
L 3084 2975 
L 922 459 
L 3084 459 
L 3084 0 
L 275 0 
L 275 525 
L 2438 3041 
L 353 3041 
L 353 3500 
z
" transform="scale(0.015625)"/>
      <path id="DejaVuSans-28" d="M 1984 4856 
Q 1566 4138 1362 3434 
Q 1159 2731 1159 2009 
Q 1159 1288 1364 580 
Q 1569 -128 1984 -844 
L 1484 -844 
Q 1016 -109 783 600 
Q 550 1309 550 2009 
Q 550 2706 781 3412 
Q 1013 4119 1484 4856 
L 1984 4856 
z
" transform="scale(0.015625)"/>
      <path id="DejaVuSans-29" d="M 513 4856 
L 1013 4856 
Q 1481 4119 1714 3412 
Q 1947 2706 1947 2009 
Q 1947 1309 1714 600 
Q 1481 -109 1013 -844 
L 513 -844 
Q 928 -128 1133 580 
Q 1338 1288 1338 2009 
Q 1338 2731 1133 3434 
Q 928 4138 513 4856 
z
" transform="scale(0.015625)"/>
     </defs>
     <use xlink:href="#DejaVuSans-78"/>
     <use xlink:href="#DejaVuSans-79" transform="translate(59.179688 0)"/>
     <use xlink:href="#DejaVuSans-7a" transform="translate(118.359375 0)"/>
     <use xlink:href="#DejaVuSans-20" transform="translate(170.849609 0)"/>
     <use xlink:href="#DejaVuSans-3d" transform="translate(202.636719 0)"/>
     <use xlink:href="#DejaVuSans-20" transform="translate(286.425781 0)"/>
     <use xlink:href="#DejaVuSans-28" transform="translate(318.212891 0)"/>
     <use xlink:href="#DejaVuSans-78" transform="translate(357.226562 0)"/>
     <use xlink:href="#DejaVuSans-2c" transform="translate(416.40625 0)"/>
     <use xlink:href="#DejaVuSans-20" transform="translate(448.193359 0)"/>
     <use xlink:href="#DejaVuSans-79" transform="translate(479.980469 0)"/>
     <use xlink:href="#DejaVuSans-2c" transform="translate(539.160156 0)"/>
     <use xlink:href="#DejaVuSans-20" transform="translate(570.947266 0)"/>
     <use xlink:href="#DejaVuSans-7a" transform="translate(602.734375 0)"/>
     <use xlink:href="#DejaVuSans-29" transform="translate(655.224609 0)"/>
    </g>
   </g>
   <g id="text_31">
    <!-- Conv1D sees one path at a time: (50, 2) -&gt; (50, 32) -&gt; (25, 32) -&gt; (13, 64) -->
    <g style="fill: #475569" transform="translate(407.628172 393.66) scale(0.09 -0.09)">
     <defs>
      <path id="DejaVuSans-43" d="M 4122 4306 
L 4122 3641 
Q 3803 3938 3442 4084 
Q 3081 4231 2675 4231 
Q 1875 4231 1450 3742 
Q 1025 3253 1025 2328 
Q 1025 1406 1450 917 
Q 1875 428 2675 428 
Q 3081 428 3442 575 
Q 3803 722 4122 1019 
L 4122 359 
Q 3791 134 3420 21 
Q 3050 -91 2638 -91 
Q 1578 -91 968 557 
Q 359 1206 359 2328 
Q 359 3453 968 4101 
Q 1578 4750 2638 4750 
Q 3056 4750 3426 4639 
Q 3797 4528 4122 4306 
z
" transform="scale(0.015625)"/>
      <path id="DejaVuSans-76" d="M 191 3500 
L 800 3500 
L 1894 563 
L 2988 3500 
L 3597 3500 
L 2284 0 
L 1503 0 
L 191 3500 
z
" transform="scale(0.015625)"/>
      <path id="DejaVuSans-31" d="M 794 531 
L 1825 531 
L 1825 4091 
L 703 3866 
L 703 4441 
L 1819 4666 
L 2450 4666 
L 2450 531 
L 3481 531 
L 3481 0 
L 794 0 
L 794 531 
z
" transform="scale(0.015625)"/>
      <path id="DejaVuSans-44" d="M 1259 4147 
L 1259 519 
L 2022 519 
Q 2988 519 3436 956 
Q 3884 1394 3884 2338 
Q 3884 3275 3436 3711 
Q 2988 4147 2022 4147 
L 1259 4147 
z
M 628 4666 
L 1925 4666 
Q 3281 4666 3915 4102 
Q 4550 3538 4550 2338 
Q 4550 1131 3912 565 
Q 3275 0 1925 0 
L 628 0 
L 628 4666 
z
" transform="scale(0.015625)"/>
      <path id="DejaVuSans-6d" d="M 3328 2828 
Q 3544 3216 3844 3400 
Q 4144 3584 4550 3584 
Q 5097 3584 5394 3201 
Q 5691 2819 5691 2113 
L 5691 0 
L 5113 0 
L 5113 2094 
Q 5113 2597 4934 2840 
Q 4756 3084 4391 3084 
Q 3944 3084 3684 2787 
Q 3425 2491 3425 1978 
L 3425 0 
L 2847 0 
L 2847 2094 
Q 2847 2600 2669 2842 
Q 2491 3084 2119 3084 
Q 1678 3084 1418 2786 
Q 1159 2488 1159 1978 
L 1159 0 
L 581 0 
L 581 3500 
L 1159 3500 
L 1159 2956 
Q 1356 3278 1631 3431 
Q 1906 3584 2284 3584 
Q 2666 3584 2933 3390 
Q 3200 3197 3328 2828 
z
" transform="scale(0.015625)"/>
      <path id="DejaVuSans-3a" d="M 750 794 
L 1409 794 
L 1409 0 
L 750 0 
L 750 794 
z
M 750 3309 
L 1409 3309 
L 1409 2516 
L 750 2516 
L 750 3309 
z
" transform="scale(0.015625)"/>
      <path id="DejaVuSans-2d" d="M 313 2009 
L 1997 2009 
L 1997 1497 
L 313 1497 
L 313 2009 
z
" transform="scale(0.015625)"/>
      <path id="DejaVuSans-3e" d="M 678 3150 
L 678 3719 
L 4684 2266 
L 4684 1747 
L 678 294 
L 678 863 
L 3897 2003 
L 678 3150 
z
" transform="scale(0.015625)"/>
      <path id="DejaVuSans-33" d="M 2597 2516 
Q 3050 2419 3304 2112 
Q 3559 1806 3559 1356 
Q 3559 666 3084 287 
Q 2609 -91 1734 -91 
Q 1441 -91 1130 -33 
Q 819 25 488 141 
L 488 750 
Q 750 597 1062 519 
Q 1375 441 1716 441 
Q 2309 441 2620 675 
Q 2931 909 2931 1356 
Q 2931 1769 2642 2001 
Q 2353 2234 1838 2234 
L 1294 2234 
L 1294 2753 
L 1863 2753 
Q 2328 2753 2575 2939 
Q 2822 3125 2822 3475 
Q 2822 3834 2567 4026 
Q 2313 4219 1838 4219 
Q 1578 4219 1281 4162 
Q 984 4106 628 3988 
L 628 4550 
Q 988 4650 1302 4700 
Q 1616 4750 1894 4750 
Q 2613 4750 3031 4423 
Q 3450 4097 3450 3541 
Q 3450 3153 3228 2886 
Q 3006 2619 2597 2516 
z
" transform="scale(0.015625)"/>
      <path id="DejaVuSans-34" d="M 2419 4116 
L 825 1625 
L 2419 1625 
L 2419 4116 
z
M 2253 4666 
L 3047 4666 
L 3047 1625 
L 3713 1625 
L 3713 1100 
L 3047 1100 
L 3047 0 
L 2419 0 
L 2419 1100 
L 313 1100 
L 313 1709 
L 2253 4666 
z
" transform="scale(0.015625)"/>
     </defs>
     <use xlink:href="#DejaVuSans-43"/>
     <use xlink:href="#DejaVuSans-6f" transform="translate(69.824219 0)"/>
     <use xlink:href="#DejaVuSans-6e" transform="translate(131.005859 0)"/>
     <use xlink:href="#DejaVuSans-76" transform="translate(194.384766 0)"/>
     <use xlink:href="#DejaVuSans-31" transform="translate(253.564453 0)"/>
     <use xlink:href="#DejaVuSans-44" transform="translate(317.1875 0)"/>
     <use xlink:href="#DejaVuSans-20" transform="translate(394.189453 0)"/>
     <use xlink:href="#DejaVuSans-73" transform="translate(425.976562 0)"/>
     <use xlink:href="#DejaVuSans-65" transform="translate(478.076172 0)"/>
     <use xlink:href="#DejaVuSans-65" transform="translate(539.599609 0)"/>
     <use xlink:href="#DejaVuSans-73" transform="translate(601.123047 0)"/>
     <use xlink:href="#DejaVuSans-20" transform="translate(653.222656 0)"/>
     <use xlink:href="#DejaVuSans-6f" transform="translate(685.009766 0)"/>
     <use xlink:href="#DejaVuSans-6e" transform="translate(746.191406 0)"/>
     <use xlink:href="#DejaVuSans-65" transform="translate(809.570312 0)"/>
     <use xlink:href="#DejaVuSans-20" transform="translate(871.09375 0)"/>
     <use xlink:href="#DejaVuSans-70" transform="translate(902.880859 0)"/>
     <use xlink:href="#DejaVuSans-61" transform="translate(966.357422 0)"/>
     <use xlink:href="#DejaVuSans-74" transform="translate(1027.636719 0)"/>
     <use xlink:href="#DejaVuSans-68" transform="translate(1066.845703 0)"/>
     <use xlink:href="#DejaVuSans-20" transform="translate(1130.224609 0)"/>
     <use xlink:href="#DejaVuSans-61" transform="translate(1162.011719 0)"/>
     <use xlink:href="#DejaVuSans-74" transform="translate(1223.291016 0)"/>
     <use xlink:href="#DejaVuSans-20" transform="translate(1262.5 0)"/>
     <use xlink:href="#DejaVuSans-61" transform="translate(1294.287109 0)"/>
     <use xlink:href="#DejaVuSans-20" transform="translate(1355.566406 0)"/>
     <use xlink:href="#DejaVuSans-74" transform="translate(1387.353516 0)"/>
     <use xlink:href="#DejaVuSans-69" transform="translate(1426.5625 0)"/>
     <use xlink:href="#DejaVuSans-6d" transform="translate(1454.345703 0)"/>
     <use xlink:href="#DejaVuSans-65" transform="translate(1551.757812 0)"/>
     <use xlink:href="#DejaVuSans-3a" transform="translate(1613.28125 0)"/>
     <use xlink:href="#DejaVuSans-20" transform="translate(1646.972656 0)"/>
     <use xlink:href="#DejaVuSans-28" transform="translate(1678.759766 0)"/>
     <use xlink:href="#DejaVuSans-35" transform="translate(1717.773438 0)"/>
     <use xlink:href="#DejaVuSans-30" transform="translate(1781.396484 0)"/>
     <use xlink:href="#DejaVuSans-2c" transform="translate(1845.019531 0)"/>
     <use xlink:href="#DejaVuSans-20" transform="translate(1876.806641 0)"/>
     <use xlink:href="#DejaVuSans-32" transform="translate(1908.59375 0)"/>
     <use xlink:href="#DejaVuSans-29" transform="translate(1972.216797 0)"/>
     <use xlink:href="#DejaVuSans-20" transform="translate(2011.230469 0)"/>
     <use xlink:href="#DejaVuSans-2d" transform="translate(2043.017578 0)"/>
     <use xlink:href="#DejaVuSans-3e" transform="translate(2079.101562 0)"/>
     <use xlink:href="#DejaVuSans-20" transform="translate(2162.890625 0)"/>
     <use xlink:href="#DejaVuSans-28" transform="translate(2194.677734 0)"/>
     <use xlink:href="#DejaVuSans-35" transform="translate(2233.691406 0)"/>
     <use xlink:href="#DejaVuSans-30" transform="translate(2297.314453 0)"/>
     <use xlink:href="#DejaVuSans-2c" transform="translate(2360.9375 0)"/>
     <use xlink:href="#DejaVuSans-20" transform="translate(2392.724609 0)"/>
     <use xlink:href="#DejaVuSans-33" transform="translate(2424.511719 0)"/>
     <use xlink:href="#DejaVuSans-32" transform="translate(2488.134766 0)"/>
     <use xlink:href="#DejaVuSans-29" transform="translate(2551.757812 0)"/>
     <use xlink:href="#DejaVuSans-20" transform="translate(2590.771484 0)"/>
     <use xlink:href="#DejaVuSans-2d" transform="translate(2622.558594 0)"/>
     <use xlink:href="#DejaVuSans-3e" transform="translate(2658.642578 0)"/>
     <use xlink:href="#DejaVuSans-20" transform="translate(2742.431641 0)"/>
     <use xlink:href="#DejaVuSans-28" transform="translate(2774.21875 0)"/>
     <use xlink:href="#DejaVuSans-32" transform="translate(2813.232422 0)"/>
     <use xlink:href="#DejaVuSans-35" transform="translate(2876.855469 0)"/>
     <use xlink:href="#DejaVuSans-2c" transform="translate(2940.478516 0)"/>
     <use xlink:href="#DejaVuSans-20" transform="translate(2972.265625 0)"/>
     <use xlink:href="#DejaVuSans-33" transform="translate(3004.052734 0)"/>
     <use xlink:href="#DejaVuSans-32" transform="translate(3067.675781 0)"/>
     <use xlink:href="#DejaVuSans-29" transform="translate(3131.298828 0)"/>
     <use xlink:href="#DejaVuSans-20" transform="translate(3170.3125 0)"/>
     <use xlink:href="#DejaVuSans-2d" transform="translate(3202.099609 0)"/>
     <use xlink:href="#DejaVuSans-3e" transform="translate(3238.183594 0)"/>
     <use xlink:href="#DejaVuSans-20" transform="translate(3321.972656 0)"/>
     <use xlink:href="#DejaVuSans-28" transform="translate(3353.759766 0)"/>
     <use xlink:href="#DejaVuSans-31" transform="translate(3392.773438 0)"/>
     <use xlink:href="#DejaVuSans-33" transform="translate(3456.396484 0)"/>
     <use xlink:href="#DejaVuSans-2c" transform="translate(3520.019531 0)"/>
     <use xlink:href="#DejaVuSans-20" transform="translate(3551.806641 0)"/>
     <use xlink:href="#DejaVuSans-36" transform="translate(3583.59375 0)"/>
     <use xlink:href="#DejaVuSans-34" transform="translate(3647.216797 0)"/>
     <use xlink:href="#DejaVuSans-29" transform="translate(3710.839844 0)"/>
    </g>
   </g>
   <g id="text_32">
    <!-- Then path embeddings are fused globally: (96, 32) -&gt; 3072 -&gt; 256 -&gt; 128 -&gt; 3 -->
    <g style="fill: #475569" transform="translate(836.636105 393.66) scale(0.09 -0.09)">
     <defs>
      <path id="DejaVuSans-54" d="M -19 4666 
L 3928 4666 
L 3928 4134 
L 2272 4134 
L 2272 0 
L 1638 0 
L 1638 4134 
L -19 4134 
L -19 4666 
z
" transform="scale(0.015625)"/>
      <path id="DejaVuSans-64" d="M 2906 2969 
L 2906 4863 
L 3481 4863 
L 3481 0 
L 2906 0 
L 2906 525 
Q 2725 213 2448 61 
Q 2172 -91 1784 -91 
Q 1150 -91 751 415 
Q 353 922 353 1747 
Q 353 2572 751 3078 
Q 1150 3584 1784 3584 
Q 2172 3584 2448 3432 
Q 2725 3281 2906 2969 
z
M 947 1747 
Q 947 1113 1208 752 
Q 1469 391 1925 391 
Q 2381 391 2643 752 
Q 2906 1113 2906 1747 
Q 2906 2381 2643 2742 
Q 2381 3103 1925 3103 
Q 1469 3103 1208 2742 
Q 947 2381 947 1747 
z
" transform="scale(0.015625)"/>
      <path id="DejaVuSans-67" d="M 2906 1791 
Q 2906 2416 2648 2759 
Q 2391 3103 1925 3103 
Q 1463 3103 1205 2759 
Q 947 2416 947 1791 
Q 947 1169 1205 825 
Q 1463 481 1925 481 
Q 2391 481 2648 825 
Q 2906 1169 2906 1791 
z
M 3481 434 
Q 3481 -459 3084 -895 
Q 2688 -1331 1869 -1331 
Q 1566 -1331 1297 -1286 
Q 1028 -1241 775 -1147 
L 775 -588 
Q 1028 -725 1275 -790 
Q 1522 -856 1778 -856 
Q 2344 -856 2625 -561 
Q 2906 -266 2906 331 
L 2906 616 
Q 2728 306 2450 153 
Q 2172 0 1784 0 
Q 1141 0 747 490 
Q 353 981 353 1791 
Q 353 2603 747 3093 
Q 1141 3584 1784 3584 
Q 2172 3584 2450 3431 
Q 2728 3278 2906 2969 
L 2906 3500 
L 3481 3500 
L 3481 434 
z
" transform="scale(0.015625)"/>
      <path id="DejaVuSans-75" d="M 544 1381 
L 544 3500 
L 1119 3500 
L 1119 1403 
Q 1119 906 1312 657 
Q 1506 409 1894 409 
Q 2359 409 2629 706 
Q 2900 1003 2900 1516 
L 2900 3500 
L 3475 3500 
L 3475 0 
L 2900 0 
L 2900 538 
Q 2691 219 2414 64 
Q 2138 -91 1772 -91 
Q 1169 -91 856 284 
Q 544 659 544 1381 
z
M 1991 3584 
L 1991 3584 
z
" transform="scale(0.015625)"/>
      <path id="DejaVuSans-37" d="M 525 4666 
L 3525 4666 
L 3525 4397 
L 1831 0 
L 1172 0 
L 2766 4134 
L 525 4134 
L 525 4666 
z
" transform="scale(0.015625)"/>
      <path id="DejaVuSans-38" d="M 2034 2216 
Q 1584 2216 1326 1975 
Q 1069 1734 1069 1313 
Q 1069 891 1326 650 
Q 1584 409 2034 409 
Q 2484 409 2743 651 
Q 3003 894 3003 1313 
Q 3003 1734 2745 1975 
Q 2488 2216 2034 2216 
z
M 1403 2484 
Q 997 2584 770 2862 
Q 544 3141 544 3541 
Q 544 4100 942 4425 
Q 1341 4750 2034 4750 
Q 2731 4750 3128 4425 
Q 3525 4100 3525 3541 
Q 3525 3141 3298 2862 
Q 3072 2584 2669 2484 
Q 3125 2378 3379 2068 
Q 3634 1759 3634 1313 
Q 3634 634 3220 271 
Q 2806 -91 2034 -91 
Q 1263 -91 848 271 
Q 434 634 434 1313 
Q 434 1759 690 2068 
Q 947 2378 1403 2484 
z
M 1172 3481 
Q 1172 3119 1398 2916 
Q 1625 2713 2034 2713 
Q 2441 2713 2670 2916 
Q 2900 3119 2900 3481 
Q 2900 3844 2670 4047 
Q 2441 4250 2034 4250 
Q 1625 4250 1398 4047 
Q 1172 3844 1172 3481 
z
" transform="scale(0.015625)"/>
     </defs>
     <use xlink:href="#DejaVuSans-54"/>
     <use xlink:href="#DejaVuSans-68" transform="translate(61.083984 0)"/>
     <use xlink:href="#DejaVuSans-65" transform="translate(124.462891 0)"/>
     <use xlink:href="#DejaVuSans-6e" transform="translate(185.986328 0)"/>
     <use xlink:href="#DejaVuSans-20" transform="translate(249.365234 0)"/>
     <use xlink:href="#DejaVuSans-70" transform="translate(281.152344 0)"/>
     <use xlink:href="#DejaVuSans-61" transform="translate(344.628906 0)"/>
     <use xlink:href="#DejaVuSans-74" transform="translate(405.908203 0)"/>
     <use xlink:href="#DejaVuSans-68" transform="translate(445.117188 0)"/>
     <use xlink:href="#DejaVuSans-20" transform="translate(508.496094 0)"/>
     <use xlink:href="#DejaVuSans-65" transform="translate(540.283203 0)"/>
     <use xlink:href="#DejaVuSans-6d" transform="translate(601.806641 0)"/>
     <use xlink:href="#DejaVuSans-62" transform="translate(699.21875 0)"/>
     <use xlink:href="#DejaVuSans-65" transform="translate(762.695312 0)"/>
     <use xlink:href="#DejaVuSans-64" transform="translate(824.21875 0)"/>
     <use xlink:href="#DejaVuSans-64" transform="translate(887.695312 0)"/>
     <use xlink:href="#DejaVuSans-69" transform="translate(951.171875 0)"/>
     <use xlink:href="#DejaVuSans-6e" transform="translate(978.955078 0)"/>
     <use xlink:href="#DejaVuSans-67" transform="translate(1042.333984 0)"/>
     <use xlink:href="#DejaVuSans-73" transform="translate(1105.810547 0)"/>
     <use xlink:href="#DejaVuSans-20" transform="translate(1157.910156 0)"/>
     <use xlink:href="#DejaVuSans-61" transform="translate(1189.697266 0)"/>
     <use xlink:href="#DejaVuSans-72" transform="translate(1250.976562 0)"/>
     <use xlink:href="#DejaVuSans-65" transform="translate(1289.839844 0)"/>
     <use xlink:href="#DejaVuSans-20" transform="translate(1351.363281 0)"/>
     <use xlink:href="#DejaVuSans-66" transform="translate(1383.150391 0)"/>
     <use xlink:href="#DejaVuSans-75" transform="translate(1418.355469 0)"/>
     <use xlink:href="#DejaVuSans-73" transform="translate(1481.734375 0)"/>
     <use xlink:href="#DejaVuSans-65" transform="translate(1533.833984 0)"/>
     <use xlink:href="#DejaVuSans-64" transform="translate(1595.357422 0)"/>
     <use xlink:href="#DejaVuSans-20" transform="translate(1658.833984 0)"/>
     <use xlink:href="#DejaVuSans-67" transform="translate(1690.621094 0)"/>
     <use xlink:href="#DejaVuSans-6c" transform="translate(1754.097656 0)"/>
     <use xlink:href="#DejaVuSans-6f" transform="translate(1781.880859 0)"/>
     <use xlink:href="#DejaVuSans-62" transform="translate(1843.0625 0)"/>
     <use xlink:href="#DejaVuSans-61" transform="translate(1906.539062 0)"/>
     <use xlink:href="#DejaVuSans-6c" transform="translate(1967.818359 0)"/>
     <use xlink:href="#DejaVuSans-6c" transform="translate(1995.601562 0)"/>
     <use xlink:href="#DejaVuSans-79" transform="translate(2023.384766 0)"/>
     <use xlink:href="#DejaVuSans-3a" transform="translate(2075.314453 0)"/>
     <use xlink:href="#DejaVuSans-20" transform="translate(2109.005859 0)"/>
     <use xlink:href="#DejaVuSans-28" transform="translate(2140.792969 0)"/>
     <use xlink:href="#DejaVuSans-39" transform="translate(2179.806641 0)"/>
     <use xlink:href="#DejaVuSans-36" transform="translate(2243.429688 0)"/>
     <use xlink:href="#DejaVuSans-2c" transform="translate(2307.052734 0)"/>
     <use xlink:href="#DejaVuSans-20" transform="translate(2338.839844 0)"/>
     <use xlink:href="#DejaVuSans-33" transform="translate(2370.626953 0)"/>
     <use xlink:href="#DejaVuSans-32" transform="translate(2434.25 0)"/>
     <use xlink:href="#DejaVuSans-29" transform="translate(2497.873047 0)"/>
     <use xlink:href="#DejaVuSans-20" transform="translate(2536.886719 0)"/>
     <use xlink:href="#DejaVuSans-2d" transform="translate(2568.673828 0)"/>
     <use xlink:href="#DejaVuSans-3e" transform="translate(2604.757812 0)"/>
     <use xlink:href="#DejaVuSans-20" transform="translate(2688.546875 0)"/>
     <use xlink:href="#DejaVuSans-33" transform="translate(2720.333984 0)"/>
     <use xlink:href="#DejaVuSans-30" transform="translate(2783.957031 0)"/>
     <use xlink:href="#DejaVuSans-37" transform="translate(2847.580078 0)"/>
     <use xlink:href="#DejaVuSans-32" transform="translate(2911.203125 0)"/>
     <use xlink:href="#DejaVuSans-20" transform="translate(2974.826172 0)"/>
     <use xlink:href="#DejaVuSans-2d" transform="translate(3006.613281 0)"/>
     <use xlink:href="#DejaVuSans-3e" transform="translate(3042.697266 0)"/>
     <use xlink:href="#DejaVuSans-20" transform="translate(3126.486328 0)"/>
     <use xlink:href="#DejaVuSans-32" transform="translate(3158.273438 0)"/>
     <use xlink:href="#DejaVuSans-35" transform="translate(3221.896484 0)"/>
     <use xlink:href="#DejaVuSans-36" transform="translate(3285.519531 0)"/>
     <use xlink:href="#DejaVuSans-20" transform="translate(3349.142578 0)"/>
     <use xlink:href="#DejaVuSans-2d" transform="translate(3380.929688 0)"/>
     <use xlink:href="#DejaVuSans-3e" transform="translate(3417.013672 0)"/>
     <use xlink:href="#DejaVuSans-20" transform="translate(3500.802734 0)"/>
     <use xlink:href="#DejaVuSans-31" transform="translate(3532.589844 0)"/>
     <use xlink:href="#DejaVuSans-32" transform="translate(3596.212891 0)"/>
     <use xlink:href="#DejaVuSans-38" transform="translate(3659.835938 0)"/>
     <use xlink:href="#DejaVuSans-20" transform="translate(3723.458984 0)"/>
     <use xlink:href="#DejaVuSans-2d" transform="translate(3755.246094 0)"/>
     <use xlink:href="#DejaVuSans-3e" transform="translate(3791.330078 0)"/>
     <use xlink:href="#DejaVuSans-20" transform="translate(3875.119141 0)"/>
     <use xlink:href="#DejaVuSans-33" transform="translate(3906.90625 0)"/>
    </g>
   </g>
  </g>
 </g>
 <defs>
  <clipPath id="pf183b99a52">
   <rect x="50.72366" y="7.2" width="1219.2805" height="410.4"/>
  </clipPath>
 </defs>
</svg>
